<svg width="93" height="72" viewBox="0 0 93 72" fill="none" xmlns="http://www.w3.org/2000/svg">
<g opacity="0.7">
<path d="M49.4143 17.5554C49.4143 19.3432 47.965 20.7924 46.1772 20.7924C44.3895 20.7924 42.9402 19.3432 42.9402 17.5554C42.9402 15.7676 44.3895 14.3184 46.1772 14.3184C47.965 14.3184 49.4143 15.7676 49.4143 17.5554Z" fill="#BDBDBD"/>
<path d="M72.8906 54.3741C72.8906 56.1618 71.4414 57.6111 69.6536 57.6111C67.8658 57.6111 66.4166 56.1618 66.4166 54.3741C66.4166 52.5863 67.8658 51.137 69.6536 51.137C71.4414 51.137 72.8906 52.5863 72.8906 54.3741Z" fill="#BDBDBD"/>
<path d="M82.6067 44.1466C82.6067 45.9344 81.1574 47.3837 79.3697 47.3837C77.5819 47.3837 76.1326 45.9344 76.1326 44.1466C76.1326 42.3589 77.5819 40.9096 79.3697 40.9096C81.1574 40.9096 82.6067 42.3589 82.6067 44.1466Z" fill="#BDBDBD"/>
<path d="M88.7431 32.3851C88.7431 34.1729 87.2938 35.6222 85.5061 35.6222C83.7183 35.6222 82.269 34.1729 82.269 32.3851C82.269 30.5974 83.7183 29.1481 85.5061 29.1481C87.2938 29.1481 88.7431 30.5974 88.7431 32.3851Z" fill="#BDBDBD"/>
<path d="M87.2091 9.37348C87.2091 11.1612 85.7598 12.6105 83.972 12.6105C82.1843 12.6105 80.735 11.1612 80.735 9.37348C80.735 7.58571 82.1843 6.13644 83.972 6.13644C85.7598 6.13644 87.2091 7.58571 87.2091 9.37348Z" fill="#BDBDBD"/>
<path d="M92.8341 19.0895C92.8341 20.8773 91.3849 22.3265 89.5971 22.3265C87.8093 22.3265 86.36 20.8773 86.36 19.0895C86.36 17.3017 87.8093 15.8525 89.5971 15.8525C91.3849 15.8525 92.8341 17.3017 92.8341 19.0895Z" fill="#BDBDBD"/>
<path d="M73.4021 3.23703C73.4021 5.0248 71.9528 6.47407 70.165 6.47407C68.3773 6.47407 66.928 5.0248 66.928 3.23703C66.928 1.44927 68.3773 0 70.165 0C71.9528 0 73.4021 1.44927 73.4021 3.23703Z" fill="#BDBDBD"/>
<path d="M60.1064 9.37348C60.1064 11.1612 58.6571 12.6105 56.8694 12.6105C55.0816 12.6105 53.6323 11.1612 53.6323 9.37348C53.6323 7.58571 55.0816 6.13644 56.8694 6.13644C58.6571 6.13644 60.1064 7.58571 60.1064 9.37348Z" fill="#BDBDBD"/>
<path d="M61.1882 62.173C61.1882 63.9607 59.739 65.41 57.9512 65.41C56.1634 65.41 54.7142 63.9607 54.7142 62.173C54.7142 60.3852 56.1634 58.9359 57.9512 58.9359C58.8104 58.9338 59.6349 59.2742 60.2425 59.8817C60.85 60.4892 61.1904 61.3138 61.1882 62.173Z" fill="#BDBDBD"/>
<path d="M19.4321 54.6062C19.4321 56.3939 20.8813 57.8432 22.6691 57.8432C24.4569 57.8432 25.9061 56.3939 25.9061 54.6062C25.9061 52.8184 24.4569 51.3691 22.6691 51.3691C20.8813 51.3691 19.4321 52.8184 19.4321 54.6062Z" fill="#BDBDBD"/>
<path d="M9.71611 44.3786C9.71611 46.1664 11.1654 47.6157 12.9531 47.6157C14.7409 47.6157 16.1902 46.1664 16.1902 44.3786C16.1902 42.5909 14.7409 41.1416 12.9531 41.1416C11.1654 41.1416 9.71611 42.5909 9.71611 44.3786Z" fill="#BDBDBD"/>
<path d="M4.60234 32.6169C4.60234 34.4047 6.05161 35.854 7.83938 35.854C9.62714 35.854 11.0764 34.4047 11.0764 32.6169C11.0764 30.8292 9.62714 29.3799 7.83938 29.3799C6.05161 29.3799 4.60234 30.8292 4.60234 32.6169Z" fill="#BDBDBD"/>
<path d="M5.1137 9.6052C5.1137 11.393 6.56296 12.8422 8.35073 12.8422C10.1385 12.8422 11.5878 11.393 11.5878 9.6052C11.5878 7.81743 10.1385 6.36816 8.35073 6.36816C6.56296 6.36816 5.1137 7.81743 5.1137 9.6052Z" fill="#BDBDBD"/>
<path d="M4.81606e-05 19.3215C4.81606e-05 21.1093 1.44932 22.5585 3.23708 22.5585C5.02485 22.5585 6.47412 21.1093 6.47412 19.3215C6.47412 17.5337 5.02485 16.0845 3.23708 16.0845C1.44932 16.0845 4.81606e-05 17.5337 4.81606e-05 19.3215Z" fill="#BDBDBD"/>
<path d="M18.9207 3.46897C18.9207 5.25673 20.37 6.706 22.1577 6.706C23.9455 6.706 25.3948 5.25673 25.3948 3.46897C25.3948 1.6812 23.9455 0.231934 22.1577 0.231934C20.37 0.231934 18.9207 1.6812 18.9207 3.46897Z" fill="#BDBDBD"/>
<path d="M32.2164 9.6052C32.2164 11.393 33.6656 12.8422 35.4534 12.8422C37.2412 12.8422 38.6904 11.393 38.6904 9.6052C38.6904 7.81743 37.2412 6.36816 35.4534 6.36816C33.6656 6.36816 32.2164 7.81743 32.2164 9.6052Z" fill="#BDBDBD"/>
<path d="M31.1346 62.405C31.1346 64.1928 32.5838 65.6421 34.3716 65.6421C36.1594 65.6421 37.6086 64.1928 37.6086 62.405C37.6086 60.6173 36.1594 59.168 34.3716 59.168C33.5124 59.1659 32.6879 59.5062 32.0803 60.1138C31.4728 60.7213 31.1325 61.5459 31.1346 62.405Z" fill="#BDBDBD"/>
<path d="M49.4143 68.7629C49.4143 70.5506 47.965 71.9999 46.1772 71.9999C44.3895 71.9999 42.9402 70.5506 42.9402 68.7629C42.9402 66.9751 44.3895 65.5258 46.1772 65.5258C47.965 65.5258 49.4143 66.9751 49.4143 68.7629Z" fill="#BDBDBD"/>
</g>
</svg>
