<svg width="18" height="18" viewBox="0 0 18 18" fill="none" xmlns="http://www.w3.org/2000/svg">
<path fill-rule="evenodd" clip-rule="evenodd" d="M8.74951 0.899414C12.2701 0.899414 15.1241 3.75342 15.1241 7.27408V10.2105L17.1368 14.2359C17.2085 14.3789 17.249 14.5403 17.249 14.7111C17.249 15.2979 16.7733 15.7735 16.1865 15.7735H10.8743C10.8743 16.947 9.9231 17.8984 8.74951 17.8984C7.57593 17.8984 6.62469 16.947 6.62469 15.7735H1.31245C0.725653 15.7735 0.25 15.2979 0.25 14.7111C0.25 14.583 0.272854 14.4602 0.314476 14.3465L0.362202 14.2359L2.37489 10.2105V7.27408C2.37489 3.75342 5.22891 0.899414 8.74951 0.899414ZM8.74951 3.02426C6.40242 3.02426 4.4998 4.92698 4.4998 7.27408V10.4614C4.4998 10.5895 4.47699 10.7122 4.43536 10.8259L4.3876 10.9365L3.03146 13.6486H14.4675L13.1114 10.9365C13.0398 10.7935 12.9992 10.6322 12.9992 10.4614V7.27408C12.9992 4.92698 11.0966 3.02426 8.74951 3.02426Z" fill="#454545"/>
</svg>
