<svg width="20" height="21" viewBox="0 0 20 21" fill="none" xmlns="http://www.w3.org/2000/svg">
<path fill-rule="evenodd" clip-rule="evenodd" d="M10 0.5C15.5229 0.5 20 4.97719 20 10.5C20 16.0229 15.5229 20.5 10 20.5C4.4772 20.5 0 16.0229 0 10.5C0 4.97719 4.4772 0.5 10 0.5ZM10 2.48438C5.57313 2.48438 1.98438 6.07312 1.98438 10.5C1.98438 14.9269 5.57313 18.5156 10 18.5156C14.4269 18.5156 18.0156 14.9269 18.0156 10.5C18.0156 6.07312 14.4269 2.48438 10 2.48438ZM10.1 8.51562C10.5971 8.51562 11 8.91856 11 9.41565V9.60004C11 9.68459 10.9883 9.76641 10.9665 9.84399L11 9.84375L10.999 13.187L12.4437 13.1875C12.9408 13.1875 13.3438 13.5904 13.3438 14.0875V14.2719C13.3438 14.7689 12.9408 15.1719 12.4437 15.1719H7.55626C7.05919 15.1719 6.65625 14.7689 6.65625 14.2719V14.0875C6.65625 13.5904 7.05919 13.1875 7.55626 13.1875L9.00001 13.187V10.499L8.58753 10.5C8.09046 10.5 7.68751 10.0971 7.68751 9.60004V9.41565C7.68751 8.91856 8.09046 8.51562 8.58753 8.51562H10.1ZM9.83594 4.84375C10.4788 4.84375 11 5.36141 11 6C11 6.63857 10.4788 7.15625 9.83594 7.15625C9.19304 7.15625 8.67189 6.63857 8.67189 6C8.67189 5.36141 9.19304 4.84375 9.83594 4.84375Z" fill="#454545"/>
</svg>
