<svg width="16" height="16" viewBox="0 0 16 16" fill="none" xmlns="http://www.w3.org/2000/svg">
<path d="M6.09999 12.5064C6.09647 13.9415 4.93085 15.1023 3.49575 15.1C2.06064 15.0976 0.898832 13.933 0.900001 12.4979C0.901171 11.0628 2.06488 9.9 3.49999 9.9C4.19066 9.9 4.85294 10.1748 5.34072 10.6638C5.8285 11.1527 6.10168 11.8157 6.09999 12.5064ZM6.09999 12.5064L6.99999 12.5086L6.09999 12.5064Z" stroke="#454545" stroke-width="1.8"/>
<path d="M6.09999 3.50636C6.09647 4.94147 4.93085 6.10233 3.49575 6.09999C2.06064 6.09764 0.898832 4.93298 0.900001 3.49787C0.901171 2.06277 2.06488 0.9 3.49999 0.9C4.19066 0.9 4.85294 1.1748 5.34072 1.66377C5.8285 2.15275 6.10168 2.81569 6.09999 3.50636ZM6.09999 3.50636L6.99999 3.50857L6.09999 3.50636Z" stroke="#454545" stroke-width="1.8"/>
<path d="M15.1 3.50636C15.0965 4.94147 13.9309 6.10233 12.4957 6.09999C11.0606 6.09764 9.89883 4.93298 9.9 3.49787C9.90117 2.06277 11.0649 0.9 12.5 0.9C13.1907 0.9 13.8529 1.1748 14.3407 1.66377C14.8285 2.15275 15.1017 2.81569 15.1 3.50636ZM15.1 3.50636L16 3.50857L15.1 3.50636Z" stroke="#454545" stroke-width="1.8"/>
<path d="M15.1 12.5064C15.0965 13.9415 13.9309 15.1023 12.4957 15.1C11.0606 15.0976 9.89883 13.933 9.9 12.4979C9.90117 11.0628 11.0649 9.9 12.5 9.9C13.1907 9.9 13.8529 10.1748 14.3407 10.6638C14.8285 11.1527 15.1017 11.8157 15.1 12.5064ZM15.1 12.5064L16 12.5086L15.1 12.5064Z" stroke="#454545" stroke-width="1.8"/>
</svg>
