<svg width="10" height="10" viewBox="0 0 10 10" fill="none" xmlns="http://www.w3.org/2000/svg">
<path d="M9.1543 6.2627L8.78502 5.95743C8.56112 5.7712 8.43795 5.49009 8.45267 5.19889C8.45267 5.13414 8.45267 5.06476 8.45267 5.00001C8.45267 4.93525 8.45267 4.86587 8.45267 4.80112C8.43795 4.50992 8.56112 4.22881 8.78502 4.04258L9.1543 3.73731C9.32952 3.59494 9.37637 3.34653 9.26509 3.14991L8.72963 2.22486C8.61613 2.03172 8.38077 1.94791 8.17109 2.02597L7.70949 2.19248C7.43707 2.29449 7.13262 2.26193 6.88783 2.1046C6.77932 2.02949 6.66511 1.96299 6.54625 1.90572C6.2865 1.77225 6.10506 1.52355 6.05695 1.23506L5.97847 0.772532C5.9419 0.54633 5.74554 0.381062 5.51687 0.384011H4.45518C4.22651 0.381062 4.03015 0.54633 3.99358 0.772532L3.91511 1.23506C3.87102 1.5199 3.69693 1.76788 3.44427 1.90572C3.32541 1.96299 3.2112 2.02949 3.10268 2.1046C2.8579 2.26193 2.55344 2.29449 2.28103 2.19248L1.81943 2.02597C1.61242 1.95301 1.38277 2.03616 1.27012 2.22486L0.73466 3.14991C0.623379 3.34653 0.670229 3.59494 0.845444 3.73731L1.21473 4.04258C1.43863 4.22881 1.56179 4.50992 1.54708 4.80112C1.54708 4.86587 1.54708 4.93525 1.54708 5.00001C1.54708 5.06476 1.54708 5.13414 1.54708 5.19889C1.56179 5.49009 1.43863 5.7712 1.21473 5.95743L0.845444 6.2627C0.670229 6.40507 0.623379 6.65348 0.73466 6.8501L1.27012 7.77515C1.38362 7.96829 1.61898 8.0521 1.82866 7.97404L2.29026 7.80753C2.56267 7.70552 2.86713 7.73808 3.11192 7.89541C3.22043 7.97053 3.33464 8.03702 3.4535 8.09429C3.71325 8.22777 3.89469 8.47646 3.9428 8.76495L4.02128 9.22748C4.05785 9.45368 4.2542 9.61895 4.48288 9.616H5.54457C5.77324 9.61895 5.9696 9.45368 6.00617 9.22748L6.08464 8.76495C6.13275 8.47646 6.3142 8.22777 6.57394 8.09429C6.6928 8.03702 6.80701 7.97053 6.91553 7.89541C7.16031 7.73808 7.46477 7.70552 7.73718 7.80753L8.19879 7.97404C8.4003 8.0372 8.6189 7.9553 8.72963 7.77515L9.26509 6.8501C9.37637 6.65348 9.32952 6.40507 9.1543 6.2627ZM4.99987 6.38758C4.23506 6.38758 3.61506 5.76634 3.61506 5.00001C3.61506 4.23367 4.23506 3.61243 4.99987 3.61243C5.76468 3.61243 6.38468 4.23367 6.38468 5.00001C6.38468 5.36801 6.23879 5.72095 5.97908 5.98117C5.71938 6.24139 5.36715 6.38758 4.99987 6.38758Z" fill="#454545"/>
</svg>
