<svg width="13" height="7" viewBox="0 0 13 7" fill="none" xmlns="http://www.w3.org/2000/svg">
<path d="M6.74617 6.91902C6.94138 6.90833 7.12697 6.8308 7.27178 6.69945L12.3815 2.0155C12.6284 1.81703 12.7447 1.49799 12.6835 1.18723C12.6223 0.876471 12.3938 0.625321 12.0901 0.535217C11.7865 0.445112 11.458 0.530936 11.2372 0.758027L6.69958 4.91635L2.162 0.758027C1.94122 0.530936 1.61266 0.445112 1.30902 0.535217C1.00538 0.625321 0.776821 0.876471 0.715647 1.18723C0.654473 1.49799 0.770791 1.81703 1.01762 2.0155L6.12739 6.69945C6.29602 6.8524 6.51885 6.93147 6.74617 6.91902Z" fill="#454545"/>
</svg>
