<svg width="25" height="35" viewBox="0 0 25 35" fill="none" xmlns="http://www.w3.org/2000/svg">
<path d="M13.7622 2.07638C13.7602 2.89651 13.0941 3.55991 12.2739 3.55857C11.4538 3.55723 10.7899 2.89165 10.7905 2.07153C10.7912 1.25141 11.4562 0.586914 12.2764 0.586914C12.671 0.586914 13.0495 0.743955 13.3283 1.02339C13.607 1.30282 13.7631 1.68169 13.7622 2.07638Z" fill="white"/>
<path d="M13.7622 8.30382C13.7622 9.12442 13.097 9.78965 12.2764 9.78965C11.4558 9.78965 10.7905 9.12442 10.7905 8.30382C10.7905 7.48322 11.4558 6.81799 12.2764 6.81799C13.097 6.81799 13.7622 7.48322 13.7622 8.30382Z" fill="white"/>
<path d="M13.7622 14.5311C13.7622 15.3517 13.097 16.0169 12.2764 16.0169C11.4558 16.0169 10.7905 15.3517 10.7905 14.5311C10.7905 13.7105 11.4558 13.0453 12.2764 13.0453C13.0961 13.0473 13.7602 13.7113 13.7622 14.5311Z" fill="white"/>
<path d="M8.36521 17.6375C8.36521 18.2403 8.00192 18.7837 7.44489 19.014C6.88787 19.2443 6.24694 19.1162 5.82124 18.6895C5.39554 18.2627 5.26901 17.6215 5.5007 17.065C5.73239 16.5086 6.27662 16.1466 6.87938 16.1481C7.70057 16.1501 8.36521 16.8164 8.36521 17.6375Z" fill="white"/>
<path d="M24.5381 8.30382C24.5381 9.12442 23.8728 9.78965 23.0522 9.78965C22.2316 9.78965 21.5664 9.12442 21.5664 8.30382C21.5664 7.48322 22.2316 6.81799 23.0522 6.81799C23.8728 6.81799 24.5381 7.48322 24.5381 8.30382Z" fill="white"/>
<path d="M19.1665 11.4138C19.1665 12.2344 18.5013 12.8996 17.6807 12.8996C16.8601 12.8996 16.1948 12.2344 16.1948 11.4138C16.1948 10.5932 16.8601 9.92798 17.6807 9.92798C18.075 9.92702 18.4535 10.0832 18.7324 10.3621C19.0112 10.641 19.1674 11.0195 19.1665 11.4138Z" fill="white"/>
<path d="M19.1665 17.6375C19.1645 18.4577 18.4983 19.1211 17.6782 19.1197C16.8581 19.1184 16.1942 18.4528 16.1948 17.6327C16.1955 16.8126 16.8605 16.1481 17.6806 16.1481C18.0753 16.1481 18.4538 16.3051 18.7326 16.5845C19.0113 16.864 19.1674 17.2428 19.1665 17.6375Z" fill="white"/>
<path d="M8.36135 11.4138C8.36135 12.0151 7.99894 12.5571 7.44328 12.7869C6.88761 13.0166 6.24825 12.8889 5.82359 12.4632C5.39894 12.0375 5.27272 11.3978 5.50384 10.8427C5.73497 10.2876 6.27787 9.92651 6.87916 9.92798C7.27289 9.92798 7.65044 10.0846 7.92851 10.3634C8.20658 10.6421 8.36231 11.0201 8.36135 11.4138Z" fill="white"/>
<path d="M24.5381 20.7621C24.536 21.5822 23.8699 22.2456 23.0498 22.2442C22.2297 22.2429 21.5657 21.5773 21.5664 20.7572C21.5671 19.9371 22.2321 19.2726 23.0522 19.2726C23.4469 19.2726 23.8254 19.4296 24.1042 19.7091C24.3829 19.9885 24.539 20.3674 24.5381 20.7621Z" fill="white"/>
<path d="M2.97165 8.30382C2.97165 9.12442 2.30643 9.78965 1.48583 9.78965C0.665228 9.78965 0 9.12442 0 8.30382C0 7.48322 0.665228 6.81799 1.48583 6.81799C1.87989 6.81799 2.25782 6.97454 2.53647 7.25318C2.81511 7.53183 2.97165 7.90975 2.97165 8.30382Z" fill="white"/>
<path d="M2.97165 20.7621C2.96964 21.5822 2.30352 22.2456 1.4834 22.2442C0.663277 22.2429 -0.000667396 21.5773 5.03467e-07 20.7572C0.000669393 19.9371 0.665698 19.2726 1.48582 19.2726C1.88052 19.2726 2.259 19.4296 2.53775 19.7091C2.8165 19.9885 2.97262 20.3674 2.97165 20.7621Z" fill="white"/>
<path d="M13.7622 20.7621C13.7602 21.5822 13.0941 22.2456 12.2739 22.2442C11.4538 22.2429 10.7899 21.5773 10.7905 20.7572C10.7912 19.9371 11.4562 19.2726 12.2764 19.2726C12.671 19.2726 13.0495 19.4296 13.3283 19.7091C13.607 19.9885 13.7631 20.3674 13.7622 20.7621Z" fill="white"/>
<path d="M13.7622 33.2169C13.7622 34.0375 13.097 34.7027 12.2764 34.7027C11.4558 34.7027 10.7905 34.0375 10.7905 33.2169C10.7905 32.3963 11.4558 31.7311 12.2764 31.7311C13.097 31.7311 13.7622 32.3963 13.7622 33.2169Z" fill="white"/>
<path d="M13.7621 26.9858C13.7621 27.8064 13.0968 28.4717 12.2762 28.4717C11.4556 28.4717 10.7904 27.8064 10.7904 26.9858C10.7904 26.1652 11.4556 25.5 12.2762 25.5C13.0968 25.5 13.7621 26.1652 13.7621 26.9858Z" fill="white"/>
</svg>
