<svg width="60" height="88" viewBox="0 0 60 88" fill="none" xmlns="http://www.w3.org/2000/svg">
<path d="M59.1312 81.6699C59.1312 78.1739 56.2971 75.3398 52.8011 75.3398C49.305 75.3398 46.4709 78.1739 46.4709 81.6699C46.4709 85.1659 49.305 88 52.8011 88C56.2936 87.9915 59.1227 85.1624 59.1312 81.6699Z" fill="#F24E43"/>
<path d="M36.1458 81.6699C36.1458 78.1739 33.3117 75.3398 29.8157 75.3398C26.3197 75.3398 23.4856 78.1739 23.4856 81.6699C23.4856 85.1659 26.3197 88 29.8157 88C33.3082 87.9915 36.1373 85.1624 36.1458 81.6699Z" fill="#F24E43"/>
<path d="M13.1605 81.6699C13.1605 78.1739 10.3264 75.3398 6.83037 75.3398C3.33434 75.3398 0.500244 78.1739 0.500244 81.6699C0.500244 85.1659 3.33434 88 6.83037 88C10.3229 87.9915 13.152 85.1624 13.1605 81.6699Z" fill="#F24E43"/>
<path d="M13.1604 25.6891C13.1604 23.1274 11.6164 20.8183 9.24914 19.8394C6.88183 18.8605 4.15792 19.405 2.34874 21.2186C0.53957 23.0322 0.00182706 25.7574 0.986499 28.1223C1.97117 30.4872 4.28412 32.0255 6.84582 32.0193C8.52324 32.0193 10.1317 31.3518 11.3164 30.1643C12.5011 28.9767 13.1645 27.3666 13.1604 25.6891Z" fill="#F24E43"/>
<path d="M36.1458 44.3494C36.1458 41.7877 34.6018 39.4786 32.2345 38.4997C29.8672 37.5208 27.1433 38.0653 25.3341 39.8789C23.5249 41.6925 22.9872 44.4177 23.9719 46.7826C24.9565 49.1475 27.2695 50.6858 29.8312 50.6796C31.5086 50.6796 33.1171 50.0121 34.3018 48.8246C35.4864 47.637 36.1499 46.0269 36.1458 44.3494Z" fill="#F24E43"/>
<path d="M13.1604 44.3494C13.1604 41.7877 11.6164 39.4786 9.24914 38.4997C6.88183 37.5208 4.15792 38.0653 2.34874 39.8789C0.53957 41.6925 0.00182706 44.4177 0.986499 46.7826C1.97117 49.1475 4.28412 50.6858 6.84582 50.6796C8.52324 50.6796 10.1317 50.0121 11.3164 48.8246C12.5011 47.637 13.1645 46.0269 13.1604 44.3494Z" fill="#F24E43"/>
<path d="M13.1602 7.02889C13.1602 3.53286 10.3261 0.698771 6.83012 0.698771C3.33409 0.698771 0.5 3.53286 0.5 7.02889C0.5 10.5249 3.33409 13.359 6.83012 13.359C8.50897 13.359 10.1191 12.6921 11.3062 11.505C12.4933 10.3178 13.1602 8.70774 13.1602 7.02889Z" fill="#F24E43"/>
<path d="M59.1309 44.3338C59.1224 40.8398 56.2845 38.0135 52.7905 38.0192C49.2965 38.0249 46.4679 40.8604 46.4707 44.3545C46.4736 47.8485 49.3068 50.6794 52.8008 50.6794C54.4824 50.6794 56.0948 50.0104 57.2824 48.8199C58.4699 47.6294 59.135 46.0153 59.1309 44.3338Z" fill="#F24E43"/>
<path d="M59.1311 62.9941C59.1225 59.5001 56.2846 56.6738 52.7906 56.6795C49.2966 56.6852 46.468 59.5208 46.4708 63.0148C46.4737 66.5088 49.3069 69.3397 52.8009 69.3397C54.4825 69.3397 56.0949 68.6707 57.2825 67.4802C58.4701 66.2897 59.1352 64.6756 59.1311 62.9941Z" fill="#F24E43"/>
<path d="M59.1311 7.02888C59.1311 3.53286 56.297 0.698765 52.8009 0.698765C49.3049 0.698765 46.4708 3.53286 46.4708 7.02888C46.4708 10.5249 49.3049 13.359 52.8009 13.359C56.297 13.359 59.1311 10.5249 59.1311 7.02888Z" fill="#F24E43"/>
<path d="M36.1224 7.02888C36.1224 3.53286 33.2883 0.698765 29.7923 0.698765C26.2963 0.698765 23.4622 3.53286 23.4622 7.02888C23.4622 10.5249 26.2963 13.359 29.7923 13.359C33.2883 13.359 36.1224 10.5249 36.1224 7.02888Z" fill="#F24E43"/>
</svg>
