<svg width="60" height="88" viewBox="0 0 60 88" fill="none" xmlns="http://www.w3.org/2000/svg">
<path d="M59.1311 81.6699C59.1311 78.1739 56.297 75.3398 52.8009 75.3398C49.3049 75.3398 46.4708 78.1739 46.4708 81.6699C46.4708 85.1659 49.3049 88 52.8009 88C56.2934 87.9915 59.1225 85.1624 59.1311 81.6699Z" fill="#F24E43"/>
<path d="M13.1604 29.9158C13.1604 27.3541 11.6164 25.0449 9.24914 24.066C6.88183 23.0872 4.15792 23.6316 2.34874 25.4452C0.53957 27.2588 0.00182706 29.9841 0.986499 32.349C1.97117 34.7139 4.28412 36.2522 6.84582 36.2459C8.52324 36.2459 10.1317 35.5785 11.3164 34.3909C12.5011 33.2033 13.1645 31.5932 13.1604 29.9158Z" fill="#F24E43"/>
<path d="M36.1224 49.9675C36.1224 47.4057 34.5784 45.0966 32.2111 44.1177C29.8437 43.1388 27.1198 43.6833 25.3107 45.4969C23.5015 47.3105 22.9637 50.0358 23.9484 52.4007C24.9331 54.7656 27.246 56.3038 29.8077 56.2976C31.4852 56.2976 33.0937 55.6302 34.2783 54.4426C35.463 53.255 36.1265 51.6449 36.1224 49.9675Z" fill="#F24E43"/>
<path d="M13.1604 49.9675C13.1604 47.4057 11.6164 45.0966 9.24914 44.1177C6.88183 43.1388 4.15792 43.6833 2.34874 45.4969C0.53957 47.3105 0.00182706 50.0358 0.986499 52.4007C1.97117 54.7656 4.28412 56.3038 6.84582 56.2976C8.52324 56.2976 10.1317 55.6302 11.3164 54.4426C12.5011 53.255 13.1645 51.6449 13.1604 49.9675Z" fill="#F24E43"/>
<path d="M13.1602 7.02889C13.1602 3.53286 10.3261 0.698771 6.83012 0.698771C3.33409 0.698771 0.5 3.53286 0.5 7.02889C0.5 10.5249 3.33409 13.359 6.83012 13.359C8.50897 13.359 10.1191 12.6921 11.3062 11.505C12.4933 10.3178 13.1602 8.70774 13.1602 7.02889Z" fill="#F24E43"/>
<path d="M59.1311 44.3339C59.1225 40.8399 56.2846 38.0136 52.7906 38.0193C49.2966 38.025 46.468 40.8605 46.4708 44.3545C46.4737 47.8486 49.3069 50.6795 52.8009 50.6795C54.4825 50.6795 56.0949 50.0105 57.2825 48.82C58.4701 47.6295 59.1352 46.0154 59.1311 44.3339Z" fill="#F24E43"/>
<path d="M59.1311 62.9941C59.1225 59.5001 56.2846 56.6738 52.7906 56.6795C49.2966 56.6852 46.468 59.5208 46.4708 63.0148C46.4737 66.5088 49.3069 69.3398 52.8009 69.3398C54.4825 69.3398 56.0949 68.6707 57.2825 67.4802C58.4701 66.2897 59.1352 64.6757 59.1311 62.9941Z" fill="#F24E43"/>
<path d="M59.1311 25.6891C59.1311 22.1931 56.297 19.359 52.8009 19.359C49.3049 19.359 46.4708 22.1931 46.4708 25.6891C46.4708 29.1852 49.3049 32.0193 52.8009 32.0193C56.297 32.0193 59.1311 29.1852 59.1311 25.6891Z" fill="#F24E43"/>
<path d="M59.1311 7.02888C59.1311 3.53286 56.297 0.698765 52.8009 0.698765C49.3049 0.698765 46.4708 3.53286 46.4708 7.02888C46.4708 10.5249 49.3049 13.359 52.8009 13.359C56.297 13.359 59.1311 10.5249 59.1311 7.02888Z" fill="#F24E43"/>
</svg>
