<svg width="18" height="16" viewBox="0 0 18 16" fill="none" xmlns="http://www.w3.org/2000/svg">
<path d="M9.72671 0.546265C6.54273 0.546265 3.80594 2.48676 2.68168 5.24755L2.23361 4.45481C2.17609 4.34636 2.08954 4.25604 1.98362 4.19395C1.87771 4.13187 1.75662 4.10046 1.63389 4.10325C1.51898 4.10581 1.40673 4.13825 1.30817 4.19737C1.20962 4.2565 1.12816 4.34028 1.07181 4.44045C1.01547 4.54062 0.986176 4.65373 0.986827 4.76866C0.987478 4.88359 1.01805 4.99637 1.07552 5.0959L2.28876 7.26733C2.3731 7.41694 2.51229 7.52791 2.67694 7.57679C2.84159 7.62567 3.01879 7.60863 3.17111 7.52927L5.32874 6.42632C5.40981 6.38915 5.48254 6.33598 5.54255 6.27001C5.60256 6.20403 5.64861 6.1266 5.67795 6.04238C5.70728 5.95815 5.71929 5.86887 5.71326 5.77989C5.70722 5.69091 5.68326 5.60407 5.64282 5.52458C5.60238 5.44509 5.54629 5.37459 5.47792 5.31732C5.40954 5.26005 5.3303 5.2172 5.24495 5.19133C5.1596 5.16545 5.06991 5.15709 4.98124 5.16676C4.89258 5.17642 4.80679 5.2039 4.72902 5.24755L3.93628 5.65426C4.88422 3.43649 7.11778 1.86979 9.72671 1.86979C13.2011 1.86979 15.9928 4.63205 15.9928 8.04626C15.9928 11.4605 13.2011 14.2227 9.72671 14.2227C6.75452 14.2227 4.27873 12.1831 3.62607 9.4663C3.58494 9.29536 3.47758 9.14777 3.32762 9.05598C3.17766 8.9642 2.99738 8.93575 2.82644 8.97688C2.6555 9.01802 2.5079 9.12537 2.41611 9.27533C2.32433 9.42529 2.29588 9.60558 2.33701 9.77652C3.1321 13.0862 6.14912 15.5463 9.72671 15.5463C13.9069 15.5463 17.3163 12.1853 17.3163 8.04626C17.3163 3.90718 13.9069 0.546265 9.72671 0.546265ZM9.80943 3.8413C9.72194 3.8422 9.63549 3.86044 9.5551 3.89497C9.4747 3.92949 9.40195 3.97962 9.34105 4.04245C9.28015 4.10527 9.23231 4.17955 9.2003 4.26098C9.16829 4.34241 9.15275 4.42938 9.15457 4.51685V8.04626C9.15451 8.14554 9.17678 8.24356 9.21974 8.33305C9.2627 8.42255 9.32524 8.50123 9.40273 8.56328L11.6086 10.328C11.6765 10.3823 11.7544 10.4227 11.8379 10.4469C11.9215 10.4711 12.0089 10.4787 12.0953 10.4691C12.1818 10.4595 12.2655 10.4329 12.3416 10.391C12.4178 10.3491 12.485 10.2925 12.5393 10.2246C12.5936 10.1567 12.634 10.0788 12.6582 9.99527C12.6824 9.91176 12.6899 9.8243 12.6803 9.73788C12.6707 9.65146 12.6442 9.56778 12.6022 9.49161C12.5603 9.41545 12.5037 9.34829 12.4358 9.29398L10.4781 7.72917V4.51685C10.4799 4.42821 10.464 4.3401 10.4311 4.25776C10.3982 4.17542 10.3492 4.10052 10.2868 4.03751C10.2244 3.9745 10.15 3.92466 10.068 3.89096C9.98602 3.85725 9.89808 3.84037 9.80943 3.8413Z" fill="#3E3E3E"/>
</svg>
