<svg width="18" height="14" viewBox="0 0 18 14" fill="none" xmlns="http://www.w3.org/2000/svg">
<path d="M5.6933 1.42175H17.7304" stroke="#454545" stroke-width="2.1"/>
<path d="M8.96152 6.71289H17.7303" stroke="#454545" stroke-width="2.1"/>
<path d="M9.3331 11.8599C9.3331 12.6804 8.66788 13.3457 7.84728 13.3457C7.02668 13.3457 6.36145 12.6804 6.36145 11.8599C6.36145 11.0393 7.02668 10.374 7.84728 10.374C8.66705 10.376 9.3311 11.0401 9.3331 11.8599Z" fill="#454545"/>
<path d="M6.36142 6.66686C6.36142 7.48746 5.6962 8.15268 4.8756 8.15268C4.055 8.15268 3.38977 7.48746 3.38977 6.66686C3.38977 5.84626 4.055 5.18103 4.8756 5.18103C5.69537 5.18303 6.35942 5.84709 6.36142 6.66686Z" fill="#454545"/>
<path d="M3.46848 1.49486C3.46848 2.31546 2.80325 2.98069 1.98265 2.98069C1.16205 2.98069 0.496826 2.31546 0.496826 1.49486C0.496826 0.67426 1.16205 0.0090332 1.98265 0.0090332C2.80242 0.0110351 3.46648 0.675091 3.46848 1.49486Z" fill="#454545"/>
<path d="M11.9955 11.8599H17.7304" stroke="#454545" stroke-width="2.1"/>
</svg>
