<svg width="12" height="12" viewBox="0 0 12 12" fill="none" xmlns="http://www.w3.org/2000/svg">
<path d="M10.4371 1.08515L10.4369 1.08497L10.4292 1.09266L6.42651 5.09539C6.35574 5.16616 6.2609 5.15461 6.21381 5.10324L6.21398 5.10308L6.2063 5.09539L2.20357 1.09266C1.94772 0.836809 1.5263 0.824128 1.27243 1.0965C1.02041 1.35256 1.00908 1.77072 1.27963 2.02337L5.27897 6.02271C5.34975 6.09349 5.33819 6.18833 5.28682 6.23542L5.28666 6.23525L5.27897 6.24293L1.26258 10.2593C1.00674 10.5152 0.994051 10.9366 1.2664 11.1904C1.52247 11.4425 1.94064 11.4538 2.19329 11.1833L6.19264 7.18392C6.26341 7.11315 6.35825 7.1247 6.40534 7.17607L6.40517 7.17623L6.41285 7.18392L10.4292 11.2003C10.6851 11.4562 11.1065 11.4688 11.3604 11.1965C11.6123 10.9405 11.6237 10.5226 11.3535 10.2699L7.3681 6.2572L7.3675 6.25659C7.29673 6.18582 7.30828 6.09098 7.35965 6.04389L7.35981 6.04406L7.3675 6.03638L11.3702 2.03364C11.6261 1.7778 11.6388 1.35639 11.3664 1.10253C11.1058 0.845928 10.6965 0.847346 10.4371 1.08515Z" fill="#454545" stroke="#454545" stroke-width="0.5"/>
</svg>
