<svg width="20" height="21" viewBox="0 0 20 21" fill="none" xmlns="http://www.w3.org/2000/svg">
<path d="M0.60498 5.26384V14.6366C0.60498 14.7903 0.681806 14.9183 0.80985 14.9695L10.0802 19.5022C10.1058 19.5022 10.1058 19.5022 10.1314 19.5279H10.157C10.1826 19.5279 10.2338 19.5535 10.2594 19.5535C10.2851 19.5535 10.3107 19.5535 10.3619 19.5279H10.3875H10.4131L18.9152 15.661C19.0432 15.6097 19.1456 15.4561 19.1456 15.3024V5.26384C19.1456 5.23823 19.1456 5.21262 19.1456 5.18701V5.16141C19.1456 5.1358 19.12 5.1358 19.12 5.11019V5.08458C19.12 5.05897 19.0944 5.03336 19.0688 5.03336C19.0432 5.00775 19.0176 4.98215 18.992 4.98215C18.992 4.98215 18.992 4.98215 18.9664 4.98215L18.9408 4.95654L10.029 1.03841C9.92653 0.987196 9.82409 0.987196 9.72166 1.03841L0.835458 4.90532C0.80985 4.90532 0.80985 4.93093 0.784241 4.93093C0.784241 4.93093 0.784241 4.93093 0.758632 4.93093C0.733024 4.95654 0.707415 4.95654 0.681806 4.98215C0.681806 4.98215 0.681806 4.98214 0.681806 5.00775C0.656198 5.03336 0.656198 5.03336 0.656198 5.05897V5.08458C0.656198 5.11019 0.630589 5.11019 0.630589 5.1358V5.16141C0.60498 5.21262 0.60498 5.23823 0.60498 5.26384ZM10.2594 8.6954L1.96224 5.26384L6.13645 3.44563L13.819 7.08205L10.2594 8.6954ZM1.37324 5.82723L9.87531 9.38683V18.5547L1.37324 14.4061V5.82723ZM18.3774 15.072L10.6436 18.5803V9.36122L18.3774 5.85284V15.072ZM9.87531 1.80667L17.814 5.26384L14.741 6.67232L7.08397 3.03589L9.87531 1.80667Z" fill="#454545" stroke="#454545" stroke-width="0.9"/>
</svg>
