<?xml version="1.0"?>
<svg xmlns="http://www.w3.org/2000/svg" xmlns:xlink="http://www.w3.org/1999/xlink" xmlns:svgjs="http://svgjs.com/svgjs" version="1.1" width="22" height="22" x="0" y="0" viewBox="0 0 24 24" style="enable-background:new 0 0 24 24" xml:space="preserve" class="">
  <g>
    <g xmlns="http://www.w3.org/2000/svg"><path d="m7.323 10.5h-2.5c-.414 0-.75-.336-.75-.75s.336-.75.75-.75h2.5c.414 0 .75.336.75.75s-.336.75-.75.75z" fill="#454545" data-original="#000000" style="" class=""/></g>
    <g xmlns="http://www.w3.org/2000/svg"><path d="m19.323 10.5h-7.5c-.414 0-.75-.336-.75-.75s.336-.75.75-.75h7.5c.414 0 .75.336.75.75s-.336.75-.75.75z" fill="#454545" data-original="#000000" style="" class=""/></g>
    <g xmlns="http://www.w3.org/2000/svg"><path d="m7.323 14.5h-2.5c-.414 0-.75-.336-.75-.75s.336-.75.75-.75h2.5c.414 0 .75.336.75.75s-.336.75-.75.75z" fill="#454545" data-original="#000000" style="" class=""/></g>
    <g xmlns="http://www.w3.org/2000/svg"><path d="m19.323 14.5h-7.5c-.414 0-.75-.336-.75-.75s.336-.75.75-.75h7.5c.414 0 .75.336.75.75s-.336.75-.75.75z" fill="#454545" data-original="#000000" style="" class=""/></g>
    <g xmlns="http://www.w3.org/2000/svg"><path d="m7.323 18.5h-2.5c-.414 0-.75-.336-.75-.75s.336-.75.75-.75h2.5c.414 0 .75.336.75.75s-.336.75-.75.75z" fill="#454545" data-original="#000000" style="" class=""/></g>
    <g xmlns="http://www.w3.org/2000/svg"><path d="m19.323 18.5h-7.5c-.414 0-.75-.336-.75-.75s.336-.75.75-.75h7.5c.414 0 .75.336.75.75s-.336.75-.75.75z" fill="#454545" data-original="#000000" style="" class=""/></g>
    <g xmlns="http://www.w3.org/2000/svg"><path d="m21.25 23h-18.5c-1.517 0-2.75-1.233-2.75-2.75v-16.5c0-1.517 1.233-2.75 2.75-2.75h18.5c1.517 0 2.75 1.233 2.75 2.75v16.5c0 1.517-1.233 2.75-2.75 2.75zm-18.5-20.5c-.689 0-1.25.561-1.25 1.25v16.5c0 .689.561 1.25 1.25 1.25h18.5c.689 0 1.25-.561 1.25-1.25v-16.5c0-.689-.561-1.25-1.25-1.25z" fill="#454545" data-original="#000000" style="" class=""/></g>
    <g xmlns="http://www.w3.org/2000/svg"><path d="m23.25 6h-22.5c-.414 0-.75-.336-.75-.75s.336-.75.75-.75h22.5c.414 0 .75.336.75.75s-.336.75-.75.75z" fill="#454545" data-original="#000000" style="" class=""/></g>
  </g>
</svg>
