<svg version="1.1" xmlns="http://www.w3.org/2000/svg" xmlns:xlink="http://www.w3.org/1999/xlink" preserveAspectRatio="xMidYMid meet" viewBox="0 0 64 64" width="64" height="64"><defs><path d="M13.98 64C9.57 63.99 6.01 60.43 6 56.02C6 51.22 6 12.78 6 7.98C6.01 3.57 9.57 0.01 13.98 0C16.37 0 35.48 0 37.87 0C38.51 0 39.11 0.25 39.56 0.7C41.37 2.51 55.88 17.02 57.69 18.83C58.14 19.28 58.39 19.88 58.39 20.52C58.39 24.07 58.39 52.47 58.39 56.02C58.39 60.43 54.82 63.99 50.41 64C50.41 64 17.62 64 13.98 64ZM13.98 4.78C12.21 4.78 10.78 6.21 10.78 7.98C10.78 12.78 10.78 51.22 10.78 56.02C10.78 57.79 12.21 59.22 13.98 59.22C17.62 59.22 46.77 59.22 50.41 59.22C52.18 59.22 53.61 57.79 53.61 56.02C53.61 53.72 53.61 42.22 53.61 21.51L36.88 4.78C24.67 4.78 17.03 4.78 13.98 4.78Z" id="a3nSQiTq9"></path><path d="M43.46 22.91C39.06 22.9 35.49 19.33 35.48 14.93C35.48 13.67 35.48 3.64 35.48 2.39C35.48 1.07 36.55 0 37.87 0C39.19 0 40.26 1.07 40.26 2.39C40.26 3.64 40.26 13.67 40.26 14.93C40.26 16.7 41.69 18.13 43.46 18.13C44.71 18.13 54.75 18.13 56 18.13C57.32 18.13 58.39 19.2 58.39 20.52C58.39 21.84 57.32 22.91 56 22.91C56 22.91 44.71 22.91 43.46 22.91Z" id="agG3qTUmI"></path><path d="M15.12 34.92C15.12 34.4 15.6 33.93 16.35 33.93C16.78 33.93 20.26 33.93 20.7 33.93C23.48 33.93 25.67 35.24 25.67 38.78C25.67 38.79 25.67 38.88 25.67 38.89C25.67 42.43 23.39 43.77 20.48 43.77C20.34 43.77 19.65 43.77 18.4 43.77C18.4 46.51 18.4 48.02 18.4 48.33C18.4 49 17.58 49.34 16.76 49.34C15.94 49.34 15.12 49 15.12 48.33C15.12 45.65 15.12 37.6 15.12 34.92ZM18.41 36.8L18.41 41.24C19.66 41.24 20.36 41.24 20.5 41.24C21.68 41.24 22.39 40.57 22.39 39.14C22.39 39.12 22.39 38.93 22.39 38.91C22.39 37.47 21.68 36.8 20.5 36.8C20.22 36.8 19.52 36.8 18.41 36.8Z" id="c2DCTKhoR3"></path><path d="M32.27 33.93C35.18 33.93 37.45 35.28 37.45 38.91C37.45 39.45 37.45 43.82 37.45 44.37C37.45 47.99 35.18 49.34 32.27 49.34C31.89 49.34 28.91 49.34 28.54 49.34C27.67 49.34 27.1 48.87 27.1 48.35C27.1 47 27.1 36.27 27.1 34.92C27.1 34.4 27.67 33.93 28.54 33.93C29.28 33.93 31.52 33.93 32.27 33.93ZM30.39 36.8L30.39 46.47C31.52 46.47 32.14 46.47 32.27 46.47C33.45 46.47 34.17 45.8 34.17 44.37C34.17 43.82 34.17 39.45 34.17 38.91C34.17 37.47 33.45 36.8 32.27 36.8C32.02 36.8 31.39 36.8 30.39 36.8Z" id="auJgaSQz"></path><path d="M39.54 34.95C39.54 34.27 40.25 33.93 40.97 33.93C41.7 33.93 47.55 33.93 48.28 33.93C48.98 33.93 49.27 34.67 49.27 35.34C49.27 36.12 48.92 36.8 48.28 36.8C47.92 36.8 46.1 36.8 42.82 36.8L42.82 40.36C44.73 40.36 45.8 40.36 46.01 40.36C46.64 40.36 47 40.97 47 41.65C47 42.21 46.7 42.89 46.01 42.89C45.8 42.89 44.73 42.89 42.82 42.89C42.82 46.15 42.82 47.96 42.82 48.33C42.82 49 42 49.34 41.18 49.34C40.36 49.34 39.54 49 39.54 48.33C39.54 45.65 39.54 37.62 39.54 34.95Z" id="a1w8YaVTFH"></path></defs><g><g><g><use xlink:href="#a3nSQiTq9" opacity="1" fill="#454545" fill-opacity="1"></use><g><use xlink:href="#a3nSQiTq9" opacity="1" fill-opacity="0" stroke="#454545" stroke-width="1" stroke-opacity="0"></use></g></g><g><use xlink:href="#agG3qTUmI" opacity="1" fill="#454545" fill-opacity="1"></use><g><use xlink:href="#agG3qTUmI" opacity="1" fill-opacity="0" stroke="#454545" stroke-width="1" stroke-opacity="0"></use></g></g><g><use xlink:href="#c2DCTKhoR3" opacity="1" fill="#454545" fill-opacity="1"></use><g><use xlink:href="#c2DCTKhoR3" opacity="1" fill-opacity="0" stroke="#454545" stroke-width="1" stroke-opacity="0"></use></g></g><g><use xlink:href="#auJgaSQz" opacity="1" fill="#454545" fill-opacity="1"></use><g><use xlink:href="#auJgaSQz" opacity="1" fill-opacity="0" stroke="#454545" stroke-width="1" stroke-opacity="0"></use></g></g><g><use xlink:href="#a1w8YaVTFH" opacity="1" fill="#454545" fill-opacity="1"></use><g><use xlink:href="#a1w8YaVTFH" opacity="1" fill-opacity="0" stroke="#454545" stroke-width="1" stroke-opacity="0"></use></g></g></g></g></svg>
