<?xml version="1.0" encoding="UTF-8" standalone="no"?>
<!DOCTYPE svg PUBLIC "-//W3C//DTD SVG 1.1//EN" "http://www.w3.org/Graphics/SVG/1.1/DTD/svg11.dtd">
<svg version="1.1" xmlns="http://www.w3.org/2000/svg" xmlns:xlink="http://www.w3.org/1999/xlink" preserveAspectRatio="xMidYMid meet" viewBox="0 0 683 683" width="22" height="22"><defs><path d="M232.57 426.6C232.57 368.38 185.2 321.02 126.99 321.02C68.77 321.02 21.4 368.38 21.4 426.6C21.4 460.44 37.42 490.58 62.24 509.92C27.2 530.76 0 570.13 0 619.22C0 623.5 0 657.74 0 662.02C0 673.06 8.94 682 19.98 682C41.38 682 212.59 682 234 682C245.03 682 253.98 673.06 253.98 662.02C253.98 657.74 253.98 623.5 253.98 619.22C253.98 570.14 226.78 530.77 191.73 509.92C216.56 490.58 232.57 460.44 232.57 426.6ZM126.99 360.98C163.17 360.98 192.61 390.42 192.61 426.6C192.61 462.79 163.17 492.23 126.99 492.23C90.8 492.23 61.36 462.79 61.36 426.6C61.36 390.42 90.8 360.98 126.99 360.98ZM39.96 642.04C39.96 628.35 39.96 620.74 39.96 619.22C39.96 571.15 78.85 532.19 126.99 532.19C175.05 532.19 214.01 571.08 214.01 619.22C214.01 620.74 214.01 628.35 214.01 642.04L39.96 642.04Z" id="aSnodrSif"></path><path d="M341 0C294.5 0 256.82 37.62 256.82 84.18C256.82 122.71 256.82 430.88 256.82 469.41C256.82 485.75 275.56 495.31 288.79 485.39C294.14 481.38 320.9 461.31 369.06 425.18C506.31 425.18 582.57 425.18 597.82 425.18C644.31 425.18 682 387.56 682 341C682 315.32 682 109.87 682 84.18C682 37.69 644.38 0 597.82 0C597.82 0 366.68 0 341 0ZM642.04 341C642.04 365.44 622.27 385.22 597.82 385.22C574.28 385.22 385.94 385.22 362.4 385.22C358.08 385.22 353.87 386.63 350.41 389.22C346.84 391.9 328.96 405.31 296.78 429.44C296.78 222.29 296.78 107.2 296.78 84.18C296.78 59.74 316.54 39.96 341 39.96C366.68 39.96 572.13 39.96 597.82 39.96C622.26 39.96 642.04 59.73 642.04 84.18C642.04 135.55 642.04 289.64 642.04 341Z" id="b5zggvqaxz"></path><path d="M362.4 107C351.36 107 342.42 115.95 342.42 126.99C342.42 138.02 351.36 146.97 362.4 146.97C383.8 146.97 555.01 146.97 576.42 146.97C587.45 146.97 596.4 138.02 596.4 126.99C596.4 115.95 587.45 107 576.42 107C533.61 107 383.8 107 362.4 107Z" id="bOPhdvDzx"></path><path d="M362.4 192.61C351.36 192.61 342.42 201.56 342.42 212.59C342.42 223.63 351.36 232.57 362.4 232.57C383.8 232.57 555.01 232.57 576.42 232.57C587.45 232.57 596.4 223.63 596.4 212.59C596.4 201.56 587.45 192.61 576.42 192.61C533.61 192.61 383.8 192.61 362.4 192.61Z" id="czavO26Sl"></path><path d="M362.4 278.22C351.36 278.22 342.42 287.16 342.42 298.2C342.42 309.23 351.36 318.18 362.4 318.18C373.1 318.18 458.71 318.18 469.41 318.18C480.44 318.18 489.39 309.23 489.39 298.2C489.39 287.16 480.44 278.22 469.41 278.22C448 278.22 373.1 278.22 362.4 278.22Z" id="e14YPjVYu4"></path></defs><g><g><g><use xlink:href="#aSnodrSif" opacity="1" fill="#000000" fill-opacity="1"></use><g><use xlink:href="#aSnodrSif" opacity="1" fill-opacity="0" stroke="#000000" stroke-width="1" stroke-opacity="0"></use></g></g><g><use xlink:href="#b5zggvqaxz" opacity="1" fill="#000000" fill-opacity="1"></use><g><use xlink:href="#b5zggvqaxz" opacity="1" fill-opacity="0" stroke="#000000" stroke-width="1" stroke-opacity="0"></use></g></g><g><use xlink:href="#bOPhdvDzx" opacity="1" fill="#000000" fill-opacity="1"></use><g><use xlink:href="#bOPhdvDzx" opacity="1" fill-opacity="0" stroke="#000000" stroke-width="1" stroke-opacity="0"></use></g></g><g><use xlink:href="#czavO26Sl" opacity="1" fill="#000000" fill-opacity="1"></use><g><use xlink:href="#czavO26Sl" opacity="1" fill-opacity="0" stroke="#000000" stroke-width="1" stroke-opacity="0"></use></g></g><g><use xlink:href="#e14YPjVYu4" opacity="1" fill="#000000" fill-opacity="1"></use><g><use xlink:href="#e14YPjVYu4" opacity="1" fill-opacity="0" stroke="#000000" stroke-width="1" stroke-opacity="0"></use></g></g></g></g></svg>