<svg version="1.1"
     xmlns="http://www.w3.org/2000/svg"
     xmlns:xlink="http://www.w3.org/1999/xlink" preserveAspectRatio="xMidYMid meet" viewBox="0 0 640 640" width="22" height="22">
  <defs>
    <path d="M373.33 237.59C514.29 265.59 592.6 281.14 608.27 284.26C627.2 288.26 640 304.26 640 323.19C640 350.39 640 567.99 640 595.19C640 617.32 622.13 635.19 600 635.19C576 635.19 384 635.19 360 635.19C367.47 635.19 373.33 629.32 373.33 621.86C373.33 620.97 373.33 616.52 373.33 608.52C509.33 608.52 584.89 608.52 600 608.52C607.2 608.52 613.33 602.66 613.33 595.19C613.33 567.99 613.33 350.39 613.33 323.19C613.33 317.06 609.07 311.46 602.93 310.12C587.63 307.1 511.09 291.99 373.33 264.79L373.33 237.59Z" id="cwimP0VIb"></path>
    <path d="M520 368.52C527.47 368.52 533.33 374.39 533.33 381.86C533.33 389.32 527.47 395.19 520 395.19C514.67 395.19 472 395.19 466.67 395.19C459.2 395.19 453.33 389.32 453.33 381.86C453.33 374.39 459.2 368.52 466.67 368.52C477.33 368.52 509.33 368.52 520 368.52Z" id="kpmR5x4Qf"></path>
    <path d="M520 448.52C527.47 448.52 533.33 454.39 533.33 461.86C533.33 469.32 527.47 475.19 520 475.19C514.67 475.19 472 475.19 466.67 475.19C459.2 475.19 453.33 469.32 453.33 461.86C453.33 454.39 459.2 448.52 466.67 448.52C477.33 448.52 509.33 448.52 520 448.52Z" id="bGSM0RBO"></path>
    <path d="M520 528.52C527.47 528.52 533.33 534.39 533.33 541.86C533.33 549.32 527.47 555.19 520 555.19C514.67 555.19 472 555.19 466.67 555.19C459.2 555.19 453.33 549.32 453.33 541.86C453.33 534.39 459.2 528.52 466.67 528.52C477.33 528.52 509.33 528.52 520 528.52Z" id="a2ovDfTaQp"></path>
    <path d="M373.33 621.86C373.33 629.32 367.47 635.19 360 635.19C352.53 635.19 346.67 629.32 346.67 621.86C346.67 620.97 346.67 616.52 346.67 608.52C346.67 392.52 346.67 272.52 346.67 248.52C346.67 244.52 348.53 240.79 351.47 238.12C354.67 235.72 358.67 234.66 362.67 235.46C363.38 235.6 366.93 236.31 373.33 237.59L373.33 264.79L373.33 608.52C373.33 615.64 373.33 620.08 373.33 621.86Z" id="a1duCDqtZG"></path>
    <path d="M346.67 608.52C346.67 616.52 346.67 620.97 346.67 621.86C346.67 629.32 352.53 635.19 360 635.19C349.33 635.19 264 635.19 253.33 635.19C260.8 635.19 266.67 629.32 266.67 621.86C266.67 620.97 266.67 616.52 266.67 608.52L346.67 608.52Z" id="c22VWLrjT0"></path>
    <path d="M280 128.52C287.47 128.52 293.33 134.39 293.33 141.85C293.33 149.32 287.47 155.19 280 155.19C274.67 155.19 232 155.19 226.67 155.19C219.2 155.19 213.33 149.32 213.33 141.85C213.33 134.39 219.2 128.52 226.67 128.52C237.33 128.52 269.33 128.52 280 128.52Z" id="a1bsHzJzl8"></path>
    <path d="M280 235.19C274.67 235.19 232 235.19 226.67 235.19C219.2 235.19 213.33 229.32 213.33 221.86C213.33 214.39 219.2 208.52 226.67 208.52C232 208.52 274.67 208.52 280 208.52C287.47 208.52 293.33 214.39 293.33 221.86C293.33 229.32 287.47 235.19 280 235.19Z" id="d32Of1slSB"></path>
    <path d="M280 288.52C287.47 288.52 293.33 294.39 293.33 301.86C293.33 309.32 287.47 315.19 280 315.19C274.67 315.19 232 315.19 226.67 315.19C219.2 315.19 213.33 309.32 213.33 301.86C213.33 294.39 219.2 288.52 226.67 288.52C237.33 288.52 269.33 288.52 280 288.52Z" id="c1Lp6i3fJt"></path>
    <path d="M280 368.52C287.47 368.52 293.33 374.39 293.33 381.86C293.33 389.32 287.47 395.19 280 395.19C274.67 395.19 232 395.19 226.67 395.19C219.2 395.19 213.33 389.32 213.33 381.86C213.33 374.39 219.2 368.52 226.67 368.52C237.33 368.52 269.33 368.52 280 368.52Z" id="fB5I5Z2Ln"></path>
    <path d="M146.67 395.19C141.33 395.19 98.67 395.19 93.33 395.19C85.87 395.19 80 389.32 80 381.86C80 374.39 85.87 368.52 93.33 368.52C98.67 368.52 141.33 368.52 146.67 368.52C154.13 368.52 160 374.39 160 381.86C160 389.32 154.13 395.19 146.67 395.19Z" id="g19xCql7Id"></path>
    <path d="M146.67 128.52C154.13 128.52 160 134.39 160 141.85C160 149.32 154.13 155.19 146.67 155.19C141.33 155.19 98.67 155.19 93.33 155.19C85.87 155.19 80 149.32 80 141.85C80 134.39 85.87 128.52 93.33 128.52C104 128.52 136 128.52 146.67 128.52Z" id="a1NgoUBD9"></path>
    <path d="M146.67 208.52C154.13 208.52 160 214.39 160 221.86C160 229.32 154.13 235.19 146.67 235.19C141.33 235.19 98.67 235.19 93.33 235.19C85.87 235.19 80 229.32 80 221.86C80 214.39 85.87 208.52 93.33 208.52C104 208.52 136 208.52 146.67 208.52Z" id="fEtFAvlw"></path>
    <path d="M146.67 288.52C154.13 288.52 160 294.39 160 301.86C160 309.32 154.13 315.19 146.67 315.19C141.33 315.19 98.67 315.19 93.33 315.19C85.87 315.19 80 309.32 80 301.86C80 294.39 85.87 288.52 93.33 288.52C104 288.52 136 288.52 146.67 288.52Z" id="b1kYsbn9js"></path>
    <path d="M240 488.52C240 481.06 233.87 475.19 226.67 475.19C218.67 475.19 154.67 475.19 146.67 475.19C139.2 475.19 133.33 481.06 133.33 488.52C133.33 496.52 133.33 536.52 133.33 608.52L106.67 608.52C106.67 536.52 106.67 496.52 106.67 488.52C106.67 466.39 124.53 448.52 146.67 448.52C154.67 448.52 218.67 448.52 226.67 448.52C248.8 448.52 266.67 466.39 266.67 488.52C266.67 496.52 266.67 536.52 266.67 608.52L240 608.52C240 544.52 240 504.52 240 488.52Z" id="d56EKtofYp"></path>
    <path d="M133.33 608.52L240 608.52L266.67 608.52C266.67 616.52 266.67 620.97 266.67 621.86C266.67 629.32 260.8 635.19 253.33 635.19C240 635.19 133.33 635.19 120 635.19C112.53 635.19 106.67 629.32 106.67 621.86C106.67 620.97 106.67 616.52 106.67 608.52L133.33 608.52Z" id="d7MBiqbPZx"></path>
    <path d="M339.73 45.05C359.2 48.25 373.33 64.79 373.33 84.52C373.33 94.73 373.33 145.75 373.33 237.59C366.93 236.31 363.38 235.6 362.67 235.46C358.67 234.66 354.67 235.72 351.47 238.12C348.53 240.79 346.67 244.52 346.67 248.52C346.67 232.12 346.67 100.92 346.67 84.52C346.67 77.85 341.87 72.25 335.47 71.19C306.16 66.76 71.71 31.35 42.4 26.92C41.6 26.65 40.8 26.65 40 26.65C36.8 26.65 33.87 27.72 31.47 29.85C28.27 32.52 26.67 35.99 26.67 39.99C26.67 95.51 26.67 539.67 26.67 595.19C26.67 602.66 32.8 608.52 40 608.52C44.44 608.52 66.67 608.52 106.67 608.52C106.67 616.52 106.67 620.97 106.67 621.86C106.67 629.32 112.53 635.19 120 635.19C112 635.19 48 635.19 40 635.19C17.87 635.19 0 617.32 0 595.19C0 539.67 0 95.51 0 39.99C0 28.25 5.07 17.05 14.13 9.59C23.2 1.85 34.93 -1.35 46.67 0.52C46.67 0.52 310.43 40.6 339.73 45.05Z" id="cZhga1uw"></path>
  </defs>
  <g>
    <g>
      <g>
        <use xlink:href="#cwimP0VIb" opacity="1" fill="#454545" fill-opacity="1"></use>
        <g>
          <use xlink:href="#cwimP0VIb" opacity="1" fill-opacity="0" stroke="#454545" stroke-width="1" stroke-opacity="0"></use>
        </g>
      </g>
      <g>
        <use xlink:href="#kpmR5x4Qf" opacity="1" fill="#454545" fill-opacity="1"></use>
        <g>
          <use xlink:href="#kpmR5x4Qf" opacity="1" fill-opacity="0" stroke="#454545" stroke-width="1" stroke-opacity="0"></use>
        </g>
      </g>
      <g>
        <use xlink:href="#bGSM0RBO" opacity="1" fill="#454545" fill-opacity="1"></use>
        <g>
          <use xlink:href="#bGSM0RBO" opacity="1" fill-opacity="0" stroke="#454545" stroke-width="1" stroke-opacity="0"></use>
        </g>
      </g>
      <g>
        <use xlink:href="#a2ovDfTaQp" opacity="1" fill="#454545" fill-opacity="1"></use>
        <g>
          <use xlink:href="#a2ovDfTaQp" opacity="1" fill-opacity="0" stroke="#454545" stroke-width="1" stroke-opacity="0"></use>
        </g>
      </g>
      <g>
        <use xlink:href="#a1duCDqtZG" opacity="1" fill="#454545" fill-opacity="1"></use>
        <g>
          <use xlink:href="#a1duCDqtZG" opacity="1" fill-opacity="0" stroke="#454545" stroke-width="1" stroke-opacity="0"></use>
        </g>
      </g>
      <g>
        <use xlink:href="#c22VWLrjT0" opacity="1" fill="#454545" fill-opacity="1"></use>
        <g>
          <use xlink:href="#c22VWLrjT0" opacity="1" fill-opacity="0" stroke="#454545" stroke-width="1" stroke-opacity="0"></use>
        </g>
      </g>
      <g>
        <use xlink:href="#a1bsHzJzl8" opacity="1" fill="#454545" fill-opacity="1"></use>
        <g>
          <use xlink:href="#a1bsHzJzl8" opacity="1" fill-opacity="0" stroke="#454545" stroke-width="1" stroke-opacity="0"></use>
        </g>
      </g>
      <g>
        <use xlink:href="#d32Of1slSB" opacity="1" fill="#454545" fill-opacity="1"></use>
        <g>
          <use xlink:href="#d32Of1slSB" opacity="1" fill-opacity="0" stroke="#454545" stroke-width="1" stroke-opacity="0"></use>
        </g>
      </g>
      <g>
        <use xlink:href="#c1Lp6i3fJt" opacity="1" fill="#454545" fill-opacity="1"></use>
        <g>
          <use xlink:href="#c1Lp6i3fJt" opacity="1" fill-opacity="0" stroke="#454545" stroke-width="1" stroke-opacity="0"></use>
        </g>
      </g>
      <g>
        <use xlink:href="#fB5I5Z2Ln" opacity="1" fill="#454545" fill-opacity="1"></use>
        <g>
          <use xlink:href="#fB5I5Z2Ln" opacity="1" fill-opacity="0" stroke="#454545" stroke-width="1" stroke-opacity="0"></use>
        </g>
      </g>
      <g>
        <use xlink:href="#g19xCql7Id" opacity="1" fill="#454545" fill-opacity="1"></use>
        <g>
          <use xlink:href="#g19xCql7Id" opacity="1" fill-opacity="0" stroke="#454545" stroke-width="1" stroke-opacity="0"></use>
        </g>
      </g>
      <g>
        <use xlink:href="#a1NgoUBD9" opacity="1" fill="#454545" fill-opacity="1"></use>
        <g>
          <use xlink:href="#a1NgoUBD9" opacity="1" fill-opacity="0" stroke="#454545" stroke-width="1" stroke-opacity="0"></use>
        </g>
      </g>
      <g>
        <use xlink:href="#fEtFAvlw" opacity="1" fill="#454545" fill-opacity="1"></use>
        <g>
          <use xlink:href="#fEtFAvlw" opacity="1" fill-opacity="0" stroke="#454545" stroke-width="1" stroke-opacity="0"></use>
        </g>
      </g>
      <g>
        <use xlink:href="#b1kYsbn9js" opacity="1" fill="#454545" fill-opacity="1"></use>
        <g>
          <use xlink:href="#b1kYsbn9js" opacity="1" fill-opacity="0" stroke="#454545" stroke-width="1" stroke-opacity="0"></use>
        </g>
      </g>
      <g>
        <use xlink:href="#d56EKtofYp" opacity="1" fill="#454545" fill-opacity="1"></use>
        <g>
          <use xlink:href="#d56EKtofYp" opacity="1" fill-opacity="0" stroke="#454545" stroke-width="1" stroke-opacity="0"></use>
        </g>
      </g>
      <g>
        <use xlink:href="#d7MBiqbPZx" opacity="1" fill="#454545" fill-opacity="1"></use>
        <g>
          <use xlink:href="#d7MBiqbPZx" opacity="1" fill-opacity="0" stroke="#454545" stroke-width="1" stroke-opacity="0"></use>
        </g>
      </g>
      <g>
        <use xlink:href="#cZhga1uw" opacity="1" fill="#454545" fill-opacity="1"></use>
        <g>
          <use xlink:href="#cZhga1uw" opacity="1" fill-opacity="0" stroke="#454545" stroke-width="1" stroke-opacity="0"></use>
        </g>
      </g>
    </g>
  </g>
</svg>
