<svg version="1.1" xmlns="http://www.w3.org/2000/svg" xmlns:xlink="http://www.w3.org/1999/xlink" preserveAspectRatio="xMidYMid meet" viewBox="0 0 64 64" width="64" height="64"><defs><path d="M13.98 64C9.57 63.99 6.01 60.43 6 56.02C6 51.22 6 12.78 6 7.98C6.01 3.57 9.57 0.01 13.98 0C16.37 0 35.48 0 37.87 0C38.51 0 39.11 0.25 39.56 0.7C41.37 2.51 55.88 17.02 57.69 18.83C58.14 19.28 58.39 19.88 58.39 20.52C58.39 24.07 58.39 52.47 58.39 56.02C58.39 60.43 54.82 63.99 50.41 64C50.41 64 17.62 64 13.98 64ZM13.98 4.78C12.21 4.78 10.78 6.21 10.78 7.98C10.78 12.78 10.78 51.22 10.78 56.02C10.78 57.79 12.21 59.22 13.98 59.22C17.62 59.22 46.77 59.22 50.41 59.22C52.18 59.22 53.61 57.79 53.61 56.02C53.61 53.72 53.61 42.22 53.61 21.51L36.88 4.78C24.67 4.78 17.03 4.78 13.98 4.78Z" id="d79mLgGVYs"></path><path d="M43.46 22.91C39.06 22.9 35.49 19.33 35.48 14.93C35.48 13.67 35.48 3.64 35.48 2.39C35.48 1.07 36.55 0 37.87 0C39.19 0 40.26 1.07 40.26 2.39C40.26 3.64 40.26 13.67 40.26 14.93C40.26 16.7 41.69 18.13 43.46 18.13C44.72 18.13 54.75 18.13 56 18.13C57.32 18.13 58.39 19.2 58.39 20.52C58.39 21.84 57.32 22.91 56 22.91C53.49 22.91 44.72 22.91 43.46 22.91Z" id="c1Lj7pIhH"></path><path d="M14.59 34.92C14.59 34.4 15.07 33.93 15.81 33.93C16.25 33.93 19.74 33.93 20.17 33.93C22.96 33.93 25.15 35.24 25.15 38.78C25.15 38.79 25.15 38.88 25.15 38.89C25.15 42.43 22.87 43.77 19.96 43.77C19.82 43.77 19.13 43.77 17.88 43.77C17.88 46.51 17.88 48.02 17.88 48.33C17.88 49 17.05 49.34 16.23 49.34C15.41 49.34 14.59 49 14.59 48.33C14.59 45.65 14.59 37.6 14.59 34.92ZM17.88 36.8L17.88 41.24C19.13 41.24 19.82 41.24 19.96 41.24C21.14 41.24 21.86 40.57 21.86 39.14C21.86 39.12 21.86 38.93 21.86 38.91C21.86 37.47 21.14 36.8 19.96 36.8C19.68 36.8 18.99 36.8 17.88 36.8Z" id="c2zkZ407f"></path><path d="M29.87 41.16C29.87 45.46 29.87 47.85 29.87 48.33C29.87 49 29.05 49.34 28.22 49.34C27.4 49.34 26.58 49 26.58 48.33C26.58 46.99 26.58 36.28 26.58 34.95C26.58 34.25 27.4 33.93 28.22 33.93C29.4 33.93 29.85 34.04 30.65 35.58C30.87 36.01 32.01 38.18 34.06 42.09C34.06 37.79 34.06 35.4 34.06 34.92C34.06 34.23 34.88 33.93 35.7 33.93C36.53 33.93 37.35 34.23 37.35 34.92C37.35 36.26 37.35 46.99 37.35 48.33C37.35 49 36.53 49.34 35.7 49.34C34.95 49.34 34.27 49.19 33.87 48.45C33.34 47.48 32 45.05 29.87 41.16Z" id="a2pJ5qqrgd"></path><path d="M42.74 38.91C42.74 39.46 42.74 43.93 42.74 44.49C42.74 45.92 43.44 46.6 44.62 46.6C45.8 46.6 46.51 45.92 46.51 44.49C46.51 44.44 46.51 44.21 46.51 43.78C45.77 43.78 45.35 43.78 45.27 43.78C44.63 43.78 44.28 43.17 44.28 42.52C44.28 41.91 44.64 41.25 45.27 41.25C45.62 41.25 48.46 41.25 48.81 41.25C49.45 41.25 49.8 41.74 49.8 42.28C49.8 42.51 49.8 44.28 49.8 44.5C49.8 48.12 47.52 49.47 44.62 49.47C41.71 49.47 39.46 48.12 39.46 44.5C39.46 43.94 39.46 39.47 39.46 38.91C39.46 35.28 41.75 33.93 44.51 33.93C47.52 33.93 49.8 35.45 49.8 38.13C49.8 39.39 49.27 39.69 48.16 39.69C47.27 39.69 46.53 39.45 46.51 38.7C46.49 37.94 46.43 36.8 44.64 36.8C43.44 36.8 42.74 37.47 42.74 38.91Z" id="b5qq2dfvKz"></path></defs><g><g><g><use xlink:href="#d79mLgGVYs" opacity="1" fill="#454545" fill-opacity="1"></use><g><use xlink:href="#d79mLgGVYs" opacity="1" fill-opacity="0" stroke="#454545" stroke-width="1" stroke-opacity="0"></use></g></g><g><use xlink:href="#c1Lj7pIhH" opacity="1" fill="#454545" fill-opacity="1"></use><g><use xlink:href="#c1Lj7pIhH" opacity="1" fill-opacity="0" stroke="#454545" stroke-width="1" stroke-opacity="0"></use></g></g><g><use xlink:href="#c2zkZ407f" opacity="1" fill="#454545" fill-opacity="1"></use><g><use xlink:href="#c2zkZ407f" opacity="1" fill-opacity="0" stroke="#454545" stroke-width="1" stroke-opacity="0"></use></g></g><g><use xlink:href="#a2pJ5qqrgd" opacity="1" fill="#454545" fill-opacity="1"></use><g><use xlink:href="#a2pJ5qqrgd" opacity="1" fill-opacity="0" stroke="#454545" stroke-width="1" stroke-opacity="0"></use></g></g><g><use xlink:href="#b5qq2dfvKz" opacity="1" fill="#454545" fill-opacity="1"></use><g><use xlink:href="#b5qq2dfvKz" opacity="1" fill-opacity="0" stroke="#454545" stroke-width="1" stroke-opacity="0"></use></g></g></g></g></svg>
