<svg width="20" height="20" viewBox="0 0 20 20" fill="none" xmlns="http://www.w3.org/2000/svg">
<path fill-rule="evenodd" clip-rule="evenodd" d="M11.605 0C16.2414 0 20 3.75851 20 8.3949C20 13.0313 16.2414 16.7899 11.605 16.7899C9.67971 16.7899 7.90582 16.1418 6.48956 15.0519L1.54208 20L0 18.4577L4.94805 13.5103C3.85812 12.0941 3.21002 10.3202 3.21002 8.3949C3.21002 3.75851 6.9686 0 11.605 0ZM11.5876 2.41341C8.27453 2.41341 5.58874 5.09918 5.58874 8.4123C5.58874 11.7254 8.27453 14.4112 11.5876 14.4112C14.9008 14.4112 17.5865 11.7254 17.5865 8.4123C17.5865 5.09918 14.9008 2.41341 11.5876 2.41341Z" fill="#454545"/>
</svg>
