<svg version="1.1"
     xmlns="http://www.w3.org/2000/svg"
     xmlns:xlink="http://www.w3.org/1999/xlink" preserveAspectRatio="xMidYMid meet" viewBox="0 0 640 640" width="22" height="22">
  <defs>
    <path d="M414.33 12.82C406.07 4.55 395.08 0 383.4 0C356.93 0 145.21 0 118.75 0C94.63 0 75 19.63 75 43.75C75 99 75 541 75 596.25C75 620.37 94.63 640 118.75 640C158.75 640 478.75 640 518.75 640C542.87 640 562.5 620.37 562.5 596.25C562.5 554.54 562.5 220.82 562.5 179.11C562.5 167.42 557.95 156.44 549.69 148.17C522.62 121.1 427.87 26.35 414.33 12.82ZM498.48 150C450.64 150 424.07 150 418.75 150C415.3 150 412.5 147.2 412.5 143.75C412.5 138.43 412.5 111.86 412.5 64.02L498.48 150ZM118.75 602.5C115.3 602.5 112.5 599.7 112.5 596.25C112.5 541 112.5 99 112.5 43.75C112.5 40.3 115.3 37.5 118.75 37.5C135.83 37.5 221.25 37.5 375 37.5C375 101.25 375 136.67 375 143.75C375 167.87 394.63 187.5 418.75 187.5C425.83 187.5 461.25 187.5 525 187.5C525 432.75 525 569 525 596.25C525 599.7 522.2 602.5 518.75 602.5C438.75 602.5 158.75 602.5 118.75 602.5Z" id="c1BQe85Bg3"></path>
    <path d="M383.34 286.25C393.69 286.25 402.09 277.86 402.09 267.5C402.09 257.15 393.69 248.75 383.34 248.75C371.39 248.75 275.82 248.75 263.88 248.75C253.52 248.75 245.13 257.15 245.13 267.5C245.13 277.86 253.52 286.25 263.88 286.25C287.77 286.25 371.39 286.25 383.34 286.25Z" id="aG6LbW29"></path>
    <path d="M383.34 411.25C393.69 411.25 402.09 402.86 402.09 392.5C402.09 382.15 393.69 373.75 383.34 373.75C371.39 373.75 275.82 373.75 263.88 373.75C253.52 373.75 245.13 382.15 245.13 392.5C245.13 402.86 253.52 411.25 263.88 411.25C287.77 411.25 371.39 411.25 383.34 411.25Z" id="fxKJwdAe0"></path>
    <path d="M263.88 498.75C253.52 498.75 245.13 507.15 245.13 517.5C245.13 527.86 253.52 536.25 263.88 536.25C275.88 536.25 371.88 536.25 383.88 536.25C394.23 536.25 402.63 527.86 402.63 517.5C402.63 507.15 394.23 498.75 383.88 498.75C359.88 498.75 275.88 498.75 263.88 498.75Z" id="bH5MKIHvA"></path>
    <path d="M127.08 259.69C120.96 253.57 117.56 250.17 116.88 249.49C109.56 242.17 97.69 242.17 90.37 249.49C83.04 256.81 83.04 268.68 90.37 276.01C92.71 278.35 111.48 297.11 113.82 299.46C117.48 303.12 122.28 304.95 127.08 304.95C131.88 304.95 136.68 303.12 140.34 299.46C145.99 293.81 191.19 248.61 196.83 242.96C204.16 235.64 204.16 223.77 196.83 216.45C189.51 209.12 177.64 209.12 170.32 216.45C164.55 222.21 150.14 236.62 127.08 259.69Z" id="a1zSAdzmsh"></path>
    <path d="M127.08 394.23C120.96 388.11 117.56 384.72 116.88 384.04C109.56 376.71 97.69 376.71 90.37 384.04C83.04 391.36 83.04 403.23 90.37 410.55C92.71 412.9 111.48 431.66 113.82 434.01C117.48 437.67 122.28 439.5 127.08 439.5C131.88 439.5 136.68 437.67 140.34 434C145.99 428.36 191.19 383.16 196.83 377.51C204.16 370.18 204.16 358.31 196.83 350.99C189.51 343.67 177.64 343.67 170.32 350.99C164.55 356.76 150.14 371.17 127.08 394.23Z" id="abf7ErOC"></path>
    <path d="M127.08 519.23C120.96 513.11 117.56 509.72 116.88 509.04C109.56 501.71 97.69 501.71 90.37 509.04C83.04 516.36 83.04 528.23 90.37 535.55C92.71 537.9 111.48 556.66 113.82 559.01C117.48 562.67 122.28 564.5 127.08 564.5C131.88 564.5 136.68 562.67 140.34 559C145.99 553.36 191.19 508.16 196.83 502.51C204.16 495.18 204.16 483.31 196.83 475.99C189.51 468.67 177.64 468.67 170.32 475.99C164.55 481.76 150.14 496.17 127.08 519.23Z" id="d3D6aVnhjJ"></path>
  </defs>
  <g>
    <g>
      <g>
        <use xlink:href="#c1BQe85Bg3" opacity="1" fill="#454545" fill-opacity="1"></use>
        <g>
          <use xlink:href="#c1BQe85Bg3" opacity="1" fill-opacity="0" stroke="#454545" stroke-width="1" stroke-opacity="0"></use>
        </g>
      </g>
      <g transform="matrix(1 0 0 1 75 0)" vector-effect="non-scaling-stroke">
        <use xlink:href="#aG6LbW29" opacity="1" fill="#454545" fill-opacity="1"></use>
        <g>
          <use xlink:href="#aG6LbW29" opacity="1" fill-opacity="0" stroke="#454545" stroke-width="1" stroke-opacity="0"></use>
        </g>
      </g>
      <g transform="matrix(1 0 0 1 75 0)" vector-effect="non-scaling-stroke">
        <use xlink:href="#fxKJwdAe0" opacity="1" fill="#454545" fill-opacity="1"></use>
        <g>
          <use xlink:href="#fxKJwdAe0" opacity="1" fill-opacity="0" stroke="#454545" stroke-width="1" stroke-opacity="0"></use>
        </g>
      </g>
      <g transform="matrix(1 0 0 1 75 0)" vector-effect="non-scaling-stroke">
        <use xlink:href="#bH5MKIHvA" opacity="1" fill="#454545" fill-opacity="1"></use>
        <g>
          <use xlink:href="#bH5MKIHvA" opacity="1" fill-opacity="0" stroke="#454545" stroke-width="1" stroke-opacity="0"></use>
        </g>
      </g>
      <g transform="matrix(1 0 0 1 75 0)" vector-effect="non-scaling-stroke">
        <use xlink:href="#a1zSAdzmsh" opacity="1" fill="#454545" fill-opacity="1"></use>
        <g>
          <use xlink:href="#a1zSAdzmsh" opacity="1" fill-opacity="0" stroke="#454545" stroke-width="1" stroke-opacity="0"></use>
        </g>
      </g>
      <g transform="matrix(1 0 0 1 75 0)" vector-effect="non-scaling-stroke">
        <use xlink:href="#abf7ErOC" opacity="1" fill="#454545" fill-opacity="1"></use>
        <g>
          <use xlink:href="#abf7ErOC" opacity="1" fill-opacity="0" stroke="#454545" stroke-width="1" stroke-opacity="0"></use>
        </g>
      </g>
      <g transform="matrix(1 0 0 1 75 0)" vector-effect="non-scaling-stroke">
        <use xlink:href="#d3D6aVnhjJ" opacity="1" fill="#454545" fill-opacity="1"></use>
        <g>
          <use xlink:href="#d3D6aVnhjJ" opacity="1" fill-opacity="0" stroke="#454545" stroke-width="1" stroke-opacity="0"></use>
        </g>
      </g>
    </g>
  </g>
</svg>
