<svg width="17" height="21" viewBox="0 0 17 21" fill="none" xmlns="http://www.w3.org/2000/svg">
<path fill-rule="evenodd" clip-rule="evenodd" d="M4.77383 11.9H12.1738C13.9738 11.9 15.4238 13.2 15.6738 14.95L15.7738 15.65C15.7738 15.9 15.7238 16.15 15.6238 16.35C14.1738 18.8 11.5238 20.4 8.47383 20.4C5.42383 20.4 2.77383 18.8 1.32383 16.35C1.22383 16.15 1.17383 15.9 1.17383 15.65L1.27383 14.95C1.52383 13.2 2.97383 11.9 4.77383 11.9ZM2.42383 15.75C3.72383 17.85 5.97383 19.15 8.47383 19.15C10.9238 19.15 13.2238 17.85 14.5238 15.75L14.4238 15.1C14.2738 14 13.3238 13.15 12.1738 13.15H4.77383C3.62383 13.15 2.67383 14 2.52383 15.1L2.42383 15.75Z" fill="#454545" stroke="#454545" stroke-width="0.6"/>
<path fill-rule="evenodd" clip-rule="evenodd" d="M8.47385 1C11.0239 1 13.1239 3.05 13.1239 5.65C13.1239 8.2 11.0239 10.25 8.47385 10.25C5.92385 10.25 3.82385 8.2 3.82385 5.65C3.82385 3.05 5.92385 1 8.47385 1ZM8.47385 2.15C10.3739 2.15 11.9739 3.7 11.9739 5.65C11.9739 7.55 10.3739 9.1 8.47385 9.1C6.52385 9.1 4.97385 7.55 4.97385 5.65C4.97385 3.7 6.52385 2.15 8.47385 2.15Z" fill="#454545" stroke="#454545" stroke-width="0.6"/>
</svg>
