<svg version="1.1" xmlns="http://www.w3.org/2000/svg" xmlns:xlink="http://www.w3.org/1999/xlink" preserveAspectRatio="xMidYMid meet" viewBox="0 0 64 64" width="64" height="64"><defs><path d="M13.98 64C9.57 63.99 6.01 60.43 6 56.02C6 51.22 6 12.78 6 7.98C6.01 3.57 9.57 0.01 13.98 0C16.37 0 35.49 0 37.88 0C38.51 0 39.12 0.25 39.57 0.7C41.38 2.51 55.88 17.02 57.69 18.83C58.14 19.28 58.39 19.88 58.39 20.52C58.39 24.07 58.39 52.47 58.39 56.02C58.39 60.43 54.82 63.99 50.41 64C50.41 64 17.62 64 13.98 64ZM13.98 4.78C12.21 4.78 10.78 6.21 10.78 7.98C10.78 12.78 10.78 51.22 10.78 56.02C10.78 57.79 12.21 59.22 13.98 59.22C17.62 59.22 46.77 59.22 50.41 59.22C52.18 59.22 53.61 57.79 53.61 56.02C53.61 53.72 53.61 42.22 53.61 21.51L36.88 4.78C24.67 4.78 17.03 4.78 13.98 4.78Z" id="aVXmWzqAf"></path><path d="M43.46 22.91C39.06 22.9 35.49 19.33 35.48 14.93C35.48 13.67 35.48 3.64 35.48 2.39C35.48 1.07 36.55 0 37.87 0C39.19 0 40.26 1.07 40.26 2.39C40.26 3.64 40.26 13.67 40.26 14.93C40.26 16.7 41.69 18.13 43.46 18.13C44.71 18.13 54.75 18.13 56 18.13C57.32 18.13 58.39 19.2 58.39 20.52C58.39 21.84 57.32 22.91 56 22.91C53.49 22.91 44.71 22.91 43.46 22.91Z" id="c1syvNkN5y"></path><path d="M30.5 51.36C29.64 50.49 22.7 43.56 21.83 42.69C20.9 41.76 20.9 40.25 21.83 39.31C22.77 38.38 24.28 38.38 25.21 39.31C25.21 39.31 25.21 39.31 25.21 39.31C25.68 39.78 28 42.11 32.19 46.29C36.38 42.11 38.71 39.78 39.17 39.31C40.11 38.38 41.62 38.38 42.55 39.31C43.48 40.25 43.48 41.76 42.55 42.69C42.55 42.69 42.55 42.69 42.55 42.69C41.68 43.56 34.75 50.49 33.88 51.35C33.43 51.8 32.83 52.06 32.19 52.06C31.56 52.06 30.95 51.81 30.5 51.36Z" id="c3fZL92Rv4"></path><path d="M29.8 48.08C29.8 46.19 29.8 31.03 29.8 29.13C29.8 27.82 30.87 26.75 32.19 26.75C33.51 26.75 34.58 27.82 34.58 29.13C34.58 31.03 34.58 46.19 34.58 48.08C34.58 49.4 33.51 50.47 32.19 50.47C30.87 50.47 29.8 49.4 29.8 48.08Z" id="g4WPd0Bhrj"></path></defs><g><g><g><use xlink:href="#aVXmWzqAf" opacity="1" fill="#454545" fill-opacity="1"></use><g><use xlink:href="#aVXmWzqAf" opacity="1" fill-opacity="0" stroke="#454545" stroke-width="1" stroke-opacity="0"></use></g></g><g><use xlink:href="#c1syvNkN5y" opacity="1" fill="#454545" fill-opacity="1"></use><g><use xlink:href="#c1syvNkN5y" opacity="1" fill-opacity="0" stroke="#454545" stroke-width="1" stroke-opacity="0"></use></g></g><g><use xlink:href="#c3fZL92Rv4" opacity="1" fill="#454545" fill-opacity="1"></use><g><use xlink:href="#c3fZL92Rv4" opacity="1" fill-opacity="0" stroke="#454545" stroke-width="1" stroke-opacity="0"></use></g></g><g><use xlink:href="#g4WPd0Bhrj" opacity="1" fill="#454545" fill-opacity="1"></use><g><use xlink:href="#g4WPd0Bhrj" opacity="1" fill-opacity="0" stroke="#454545" stroke-width="1" stroke-opacity="0"></use></g></g></g></g></svg>
