<svg width="16" height="17" viewBox="0 0 16 17" fill="none" xmlns="http://www.w3.org/2000/svg">
<path d="M6.09999 13.1528C6.09647 14.588 4.93085 15.7488 3.49575 15.7465C2.06064 15.7441 0.898832 14.5795 0.900001 13.1444C0.901171 11.7093 2.06488 10.5465 3.49999 10.5465C4.19066 10.5465 4.85294 10.8213 5.34072 11.3103C5.8285 11.7992 6.10168 12.4622 6.09999 13.1528ZM6.09999 13.1528L6.99999 13.1551L6.09999 13.1528Z" stroke="#454545" stroke-width="1.8"/>
<path d="M6.09999 4.15284C6.09647 5.58795 4.93085 6.74881 3.49575 6.74647C2.06064 6.74413 0.898832 5.57946 0.900001 4.14436C0.901171 2.70925 2.06488 1.54648 3.49999 1.54648C4.19066 1.54648 4.85294 1.82129 5.34072 2.31026C5.8285 2.79923 6.10168 3.46217 6.09999 4.15284ZM6.09999 4.15284L6.99999 4.15506L6.09999 4.15284Z" stroke="#454545" stroke-width="1.8"/>
<path d="M15.1 4.15284C15.0965 5.58795 13.9309 6.74881 12.4957 6.74647C11.0606 6.74413 9.89883 5.57946 9.9 4.14436C9.90117 2.70925 11.0649 1.54648 12.5 1.54648C13.1907 1.54648 13.8529 1.82129 14.3407 2.31026C14.8285 2.79923 15.1017 3.46217 15.1 4.15284ZM15.1 4.15284L16 4.15506L15.1 4.15284Z" stroke="#454545" stroke-width="1.8"/>
<path d="M15.1 13.1528C15.0965 14.588 13.9309 15.7488 12.4957 15.7465C11.0606 15.7441 9.89883 14.5795 9.9 13.1444C9.90117 11.7093 11.0649 10.5465 12.5 10.5465C13.1907 10.5465 13.8529 10.8213 14.3407 11.3103C14.8285 11.7992 15.1017 12.4622 15.1 13.1528ZM15.1 13.1528L16 13.1551L15.1 13.1528Z" stroke="#454545" stroke-width="1.8"/>
</svg>
