<svg width="9" height="15" viewBox="0 0 9 15" fill="none" xmlns="http://www.w3.org/2000/svg">
<path d="M8.48733 7.44528C8.47477 7.21606 8.38374 6.99814 8.22951 6.8281L2.72951 0.828097C2.49647 0.538263 2.12185 0.401679 1.75694 0.473511C1.39204 0.545343 1.09714 0.813725 0.991334 1.17026C0.885531 1.5268 0.986308 1.9126 1.25296 2.17185L6.13576 7.49998L1.25296 12.8281C0.986308 13.0874 0.885531 13.4732 0.991334 13.8297C1.09714 14.1862 1.39204 14.4546 1.75694 14.5264C2.12185 14.5983 2.49647 14.4617 2.72951 14.1719L8.22951 8.17185C8.4091 7.97385 8.50195 7.7122 8.48733 7.44528Z" fill="black"/>
</svg>
