<svg width="22" height="20" viewBox="0 0 22 20" fill="none" xmlns="http://www.w3.org/2000/svg">
<path d="M20.5107 3.38516C20.2662 3.09545 19.9063 2.92843 19.5271 2.92874H5.05643L4.93429 2.09302C4.83815 1.45912 4.28968 0.992917 3.64857 1.00008H1.64286C1.28782 1.00008 1 1.28798 1 1.64302C1 1.99806 1.28782 2.28588 1.64286 2.28588H3.66143L5.42286 14.0502C5.51899 14.6841 6.06746 15.1503 6.70857 15.1431H19C19.355 15.1431 19.6429 14.8552 19.6429 14.5002C19.6429 14.1451 19.355 13.8573 19 13.8573H6.69571L6.40643 11.9287H18.4536C19.0884 11.9374 19.6346 11.4814 19.7393 10.8552L20.8064 4.42659C20.8659 4.05285 20.7578 3.67187 20.5107 3.38516ZM18.4536 10.643H6.23929L5.24929 4.21445H19.5271L18.4536 10.643Z" fill="#454545" stroke="#454545" stroke-width="0.5"/>
<path d="M8.07136 19.0001C8.78144 19.0001 9.35707 18.4245 9.35707 17.7144C9.35707 17.0043 8.78144 16.4287 8.07136 16.4287C7.36128 16.4287 6.78564 17.0043 6.78564 17.7144C6.78564 18.4245 7.36128 19.0001 8.07136 19.0001Z" fill="#454545" stroke="#454545" stroke-width="0.4"/>
<path d="M16.4285 19.0001C17.1386 19.0001 17.7142 18.4245 17.7142 17.7144C17.7142 17.0043 17.1386 16.4287 16.4285 16.4287C15.7185 16.4287 15.1428 17.0043 15.1428 17.7144C15.1428 18.4245 15.7185 19.0001 16.4285 19.0001Z" fill="#454545" stroke="#454545" stroke-width="0.4"/>
</svg>
