<svg version="1.1" xmlns="http://www.w3.org/2000/svg" xmlns:xlink="http://www.w3.org/1999/xlink" preserveAspectRatio="xMidYMid meet" viewBox="0 0 64 64" width="64" height="64"><defs><path d="M6 56.02C6 51.22 6 12.78 6 7.98C6.01 3.57 9.53 0.01 13.88 0C16.24 0 35.12 0 37.48 0C38.11 0 38.71 0.25 39.15 0.7C40.94 2.51 55.27 17.02 57.06 18.83C57.5 19.28 57.75 19.89 57.75 20.52C57.75 24.07 57.75 52.47 57.75 56.02C57.75 60.42 54.22 63.99 49.87 64C49.87 64 17.48 64 13.88 64C9.53 63.99 6.01 60.43 6 56.02ZM10.72 7.98C10.72 12.78 10.72 51.22 10.72 56.02C10.72 57.79 12.13 59.22 13.88 59.22C17.48 59.22 46.27 59.22 49.87 59.22C51.62 59.22 53.03 57.79 53.03 56.02C53.03 53.72 53.03 42.22 53.03 21.51C51.38 19.83 38.16 6.45 36.51 4.78C24.44 4.78 16.9 4.78 13.88 4.78C12.13 4.78 10.72 6.21 10.72 7.98Z" id="b1oCoOoc6X"></path><path d="M6 56.02C6 51.22 6 12.78 6 7.98C6.01 3.57 9.53 0.01 13.88 0C16.24 0 35.12 0 37.48 0C38.11 0 38.71 0.25 39.15 0.7C40.94 2.51 55.27 17.02 57.06 18.83C57.5 19.28 57.75 19.89 57.75 20.52C57.75 24.07 57.75 52.47 57.75 56.02C57.75 60.42 54.22 63.99 49.87 64C49.87 64 17.48 64 13.88 64C9.53 63.99 6.01 60.43 6 56.02ZM10.72 7.98C10.72 12.78 10.72 51.22 10.72 56.02C10.72 57.79 12.13 59.22 13.88 59.22C17.48 59.22 46.27 59.22 49.87 59.22C51.62 59.22 53.03 57.79 53.03 56.02C53.03 53.72 53.03 42.22 53.03 21.51C51.38 19.83 38.16 6.45 36.51 4.78C24.44 4.78 16.9 4.78 13.88 4.78C12.13 4.78 10.72 6.21 10.72 7.98Z" id="e5O0hQxyD8"></path><path d="M35.13 14.93C35.13 13.67 35.13 3.64 35.13 2.39C35.13 1.07 36.18 0 37.48 0C38.79 0 39.84 1.07 39.84 2.39C39.84 3.64 39.84 13.67 39.84 14.93C39.85 16.7 41.26 18.13 43.01 18.13C44.25 18.13 54.16 18.13 55.39 18.13C56.7 18.13 57.75 19.2 57.75 20.52C57.75 21.84 56.7 22.91 55.39 22.91C52.92 22.91 44.25 22.91 43.01 22.91C38.66 22.9 35.13 19.33 35.13 14.93Z" id="fRf9M1DX9"></path><path d="M35.13 14.93C35.13 13.67 35.13 3.64 35.13 2.39C35.13 1.07 36.18 0 37.48 0C38.79 0 39.84 1.07 39.84 2.39C39.84 3.64 39.84 13.67 39.84 14.93C39.85 16.7 41.26 18.13 43.01 18.13C44.25 18.13 54.16 18.13 55.39 18.13C56.7 18.13 57.75 19.2 57.75 20.52C57.75 21.84 56.7 22.91 55.39 22.91C52.92 22.91 44.25 22.91 43.01 22.91C38.66 22.9 35.13 19.33 35.13 14.93Z" id="g3ku5ovhDz"></path><path d="M21.52 44.49C21.52 45.92 22.21 46.6 23.37 46.6C24.54 46.6 25.25 45.92 25.25 44.49C25.25 44.44 25.25 44.21 25.25 43.78C24.51 43.78 24.1 43.78 24.01 43.78C23.39 43.78 23.04 43.17 23.04 42.52C23.04 41.91 23.39 41.25 24.01 41.25C24.36 41.25 27.16 41.25 27.51 41.25C28.14 41.25 28.49 41.74 28.49 42.28C28.49 42.51 28.49 44.28 28.49 44.5C28.49 48.12 26.24 49.47 23.37 49.47C20.5 49.47 18.27 48.12 18.27 44.5C18.27 43.94 18.27 39.47 18.27 38.91C18.27 35.28 20.54 33.93 23.26 33.93C26.24 33.93 28.49 35.45 28.49 38.13C28.49 39.39 27.97 39.69 26.87 39.69C25.99 39.69 25.26 39.45 25.24 38.7C25.22 37.94 25.16 36.8 23.39 36.8C22.21 36.8 21.52 37.47 21.52 38.91C21.52 39.46 21.52 43.93 21.52 44.49Z" id="b12EysyQ5Z"></path><path d="M21.52 44.49C21.52 45.92 22.21 46.6 23.37 46.6C24.54 46.6 25.25 45.92 25.25 44.49C25.25 44.44 25.25 44.21 25.25 43.78C24.51 43.78 24.1 43.78 24.01 43.78C23.39 43.78 23.04 43.17 23.04 42.52C23.04 41.91 23.39 41.25 24.01 41.25C24.36 41.25 27.16 41.25 27.51 41.25C28.14 41.25 28.49 41.74 28.49 42.28C28.49 42.51 28.49 44.28 28.49 44.5C28.49 48.12 26.24 49.47 23.37 49.47C20.5 49.47 18.27 48.12 18.27 44.5C18.27 43.94 18.27 39.47 18.27 38.91C18.27 35.28 20.54 33.93 23.26 33.93C26.24 33.93 28.49 35.45 28.49 38.13C28.49 39.39 27.97 39.69 26.87 39.69C25.99 39.69 25.26 39.45 25.24 38.7C25.22 37.94 25.16 36.8 23.39 36.8C22.21 36.8 21.52 37.47 21.52 38.91C21.52 39.46 21.52 43.93 21.52 44.49Z" id="a8cSSVo620"></path><path d="M31.99 33.93C32.8 33.93 33.61 34.23 33.61 34.92C33.61 36.26 33.61 46.99 33.61 48.33C33.61 49 32.8 49.34 31.99 49.34C31.18 49.34 30.37 49 30.37 48.33C30.37 45.65 30.37 37.6 30.37 34.92C30.37 34.23 31.18 33.93 31.99 33.93Z" id="jQ7yMhOSx"></path><path d="M31.99 33.93C32.8 33.93 33.61 34.23 33.61 34.92C33.61 36.26 33.61 46.99 33.61 48.33C33.61 49 32.8 49.34 31.99 49.34C31.18 49.34 30.37 49 30.37 48.33C30.37 45.65 30.37 37.6 30.37 34.92C30.37 34.23 31.18 33.93 31.99 33.93Z" id="c1iRYWIuJj"></path><path d="M37.28 33.93C38 33.93 43.78 33.93 44.5 33.93C45.19 33.93 45.48 34.67 45.48 35.34C45.48 36.13 45.13 36.8 44.5 36.8C44.14 36.8 42.35 36.8 39.11 36.8C39.11 37.16 39.11 40.01 39.11 40.36C41 40.36 42.05 40.36 42.26 40.36C42.89 40.36 43.23 40.97 43.23 41.65C43.23 42.21 42.94 42.89 42.26 42.89C42.05 42.89 41 42.89 39.11 42.89C39.11 46.15 39.11 47.96 39.11 48.33C39.11 49 38.3 49.34 37.49 49.34C36.68 49.34 35.86 49 35.86 48.33C35.86 45.65 35.86 37.62 35.86 34.95C35.86 34.27 36.57 33.93 37.28 33.93Z" id="d1UlOM0zA7"></path><path d="M37.28 33.93C38 33.93 43.78 33.93 44.5 33.93C45.19 33.93 45.48 34.67 45.48 35.34C45.48 36.13 45.13 36.8 44.5 36.8C44.14 36.8 42.35 36.8 39.11 36.8C39.11 37.16 39.11 40.01 39.11 40.36C41 40.36 42.05 40.36 42.26 40.36C42.89 40.36 43.23 40.97 43.23 41.65C43.23 42.21 42.94 42.89 42.26 42.89C42.05 42.89 41 42.89 39.11 42.89C39.11 46.15 39.11 47.96 39.11 48.33C39.11 49 38.3 49.34 37.49 49.34C36.68 49.34 35.86 49 35.86 48.33C35.86 45.65 35.86 37.62 35.86 34.95C35.86 34.27 36.57 33.93 37.28 33.93Z" id="l2v3yDeP8Y"></path></defs><g><g><g><use xlink:href="#b1oCoOoc6X" opacity="1" fill="#454545" fill-opacity="1"></use><g><use xlink:href="#b1oCoOoc6X" opacity="1" fill-opacity="0" stroke="#454545" stroke-width="1" stroke-opacity="0"></use></g></g><g><use xlink:href="#e5O0hQxyD8" opacity="1" fill="#454545" fill-opacity="0"></use><g><use xlink:href="#e5O0hQxyD8" opacity="1" fill-opacity="0" stroke="#454545" stroke-width="1" stroke-opacity="0"></use></g></g><g><use xlink:href="#fRf9M1DX9" opacity="1" fill="#454545" fill-opacity="1"></use><g><use xlink:href="#fRf9M1DX9" opacity="1" fill-opacity="0" stroke="#454545" stroke-width="1" stroke-opacity="0"></use></g></g><g><use xlink:href="#g3ku5ovhDz" opacity="1" fill="#454545" fill-opacity="0"></use><g><use xlink:href="#g3ku5ovhDz" opacity="1" fill-opacity="0" stroke="#454545" stroke-width="1" stroke-opacity="0"></use></g></g><g><use xlink:href="#b12EysyQ5Z" opacity="1" fill="#454545" fill-opacity="1"></use><g><use xlink:href="#b12EysyQ5Z" opacity="1" fill-opacity="0" stroke="#454545" stroke-width="1" stroke-opacity="0"></use></g></g><g><use xlink:href="#a8cSSVo620" opacity="1" fill="#454545" fill-opacity="0"></use><g><use xlink:href="#a8cSSVo620" opacity="1" fill-opacity="0" stroke="#454545" stroke-width="1" stroke-opacity="0"></use></g></g><g><use xlink:href="#jQ7yMhOSx" opacity="1" fill="#454545" fill-opacity="1"></use><g><use xlink:href="#jQ7yMhOSx" opacity="1" fill-opacity="0" stroke="#454545" stroke-width="1" stroke-opacity="0"></use></g></g><g><use xlink:href="#c1iRYWIuJj" opacity="1" fill="#454545" fill-opacity="0"></use><g><use xlink:href="#c1iRYWIuJj" opacity="1" fill-opacity="0" stroke="#454545" stroke-width="1" stroke-opacity="0"></use></g></g><g><use xlink:href="#d1UlOM0zA7" opacity="1" fill="#454545" fill-opacity="1"></use><g><use xlink:href="#d1UlOM0zA7" opacity="1" fill-opacity="0" stroke="#454545" stroke-width="1" stroke-opacity="0"></use></g></g><g><use xlink:href="#l2v3yDeP8Y" opacity="1" fill="#454545" fill-opacity="0"></use><g><use xlink:href="#l2v3yDeP8Y" opacity="1" fill-opacity="0" stroke="#454545" stroke-width="1" stroke-opacity="0"></use></g></g></g></g></svg>
