<svg width="59" height="88" viewBox="0 0 59 88" fill="none" xmlns="http://www.w3.org/2000/svg">
<path d="M58.943 81.6699C58.943 78.1739 56.1089 75.3398 52.6129 75.3398C49.1168 75.3398 46.2827 78.1739 46.2827 81.6699C46.2827 85.1659 49.1168 88 52.6129 88C56.1054 87.9915 58.9345 85.1624 58.943 81.6699Z" fill="#F24E43"/>
<path d="M12.9722 81.6699C12.9722 78.1739 10.1381 75.3398 6.64204 75.3398C3.14601 75.3398 0.31192 78.1739 0.31192 81.6699C0.31192 85.1659 3.14601 88 6.64204 88C10.1345 87.9915 12.9636 85.1624 12.9722 81.6699Z" fill="#F24E43"/>
<path d="M35.9341 81.6699C35.9341 78.1739 33.1 75.3398 29.604 75.3398C26.1079 75.3398 23.2738 78.1739 23.2738 81.6699C23.2738 85.1659 26.1079 88 29.604 88C33.0964 87.9915 35.9255 85.1624 35.9341 81.6699Z" fill="#F24E43"/>
<path d="M12.9724 25.6891C12.9724 23.1274 11.4284 20.8183 9.06106 19.8394C6.69375 18.8605 3.96984 19.405 2.16066 21.2186C0.35149 23.0322 -0.186253 25.7574 0.798419 28.1223C1.78309 30.4872 4.09604 32.0255 6.65774 32.0193C8.33516 32.0193 9.94366 31.3518 11.1283 30.1643C12.313 28.9767 12.9765 27.3666 12.9724 25.6891Z" fill="#F24E43"/>
<path d="M12.9724 63.0097C12.9724 60.448 11.4284 58.1389 9.06106 57.16C6.69375 56.1811 3.96984 56.7256 2.16066 58.5392C0.35149 60.3528 -0.186253 63.0781 0.798419 65.443C1.78309 67.8079 4.09604 69.3461 6.65774 69.3399C8.33516 69.3399 9.94366 68.6725 11.1283 67.4849C12.313 66.2973 12.9765 64.6872 12.9724 63.0097Z" fill="#F24E43"/>
<path d="M12.9724 44.3494C12.9724 41.7877 11.4284 39.4786 9.06109 38.4997C6.69378 37.5208 3.96987 38.0653 2.16069 39.8789C0.35152 41.6925 -0.186222 44.4177 0.79845 46.7826C1.78312 49.1475 4.09607 50.6858 6.65777 50.6796C8.33519 50.6796 9.94369 50.0121 11.1284 48.8246C12.313 47.637 12.9765 46.0269 12.9724 44.3494Z" fill="#F24E43"/>
<path d="M12.9722 7.02889C12.9722 3.53286 10.1381 0.698771 6.64207 0.698771C3.14604 0.698771 0.311951 3.53286 0.311951 7.02889C0.311951 10.5249 3.14604 13.359 6.64207 13.359C8.32092 13.359 9.93101 12.6921 11.1181 11.505C12.3053 10.3178 12.9722 8.70774 12.9722 7.02889Z" fill="#F24E43"/>
<path d="M35.9343 7.02889C35.9343 3.53286 33.1002 0.698771 29.6042 0.698771C26.1082 0.698771 23.2741 3.53286 23.2741 7.02889C23.2741 10.5249 26.1082 13.359 29.6042 13.359C31.2831 13.359 32.8931 12.6921 34.0803 11.505C35.2674 10.3178 35.9343 8.70774 35.9343 7.02889Z" fill="#F24E43"/>
<path d="M58.943 44.3339C58.9344 40.8399 56.0966 38.0136 52.6026 38.0193C49.1086 38.025 46.2799 40.8605 46.2828 44.3545C46.2856 47.8486 49.1189 50.6795 52.6129 50.6795C54.2944 50.6795 55.9069 50.0105 57.0944 48.82C58.282 47.6295 58.9471 46.0154 58.943 44.3339Z" fill="#F24E43"/>
<path d="M58.943 25.6891C58.943 22.1931 56.1089 19.359 52.6129 19.359C49.1168 19.359 46.2827 22.1931 46.2827 25.6891C46.2827 29.1852 49.1168 32.0193 52.6129 32.0193C56.1089 32.0193 58.943 29.1852 58.943 25.6891Z" fill="#F24E43"/>
<path d="M58.943 63.0096C58.943 59.5136 56.1089 56.6795 52.6129 56.6795C49.1168 56.6795 46.2827 59.5136 46.2827 63.0096C46.2827 66.5057 49.1168 69.3398 52.6129 69.3398C56.1089 69.3398 58.943 66.5057 58.943 63.0096Z" fill="#F24E43"/>
<path d="M58.943 7.02888C58.943 3.53286 56.1089 0.698765 52.6129 0.698765C49.1169 0.698765 46.2828 3.53286 46.2828 7.02888C46.2828 10.5249 49.1169 13.359 52.6129 13.359C56.1089 13.359 58.943 10.5249 58.943 7.02888Z" fill="#F24E43"/>
</svg>
