<svg width="32" height="32" viewBox="0 0 32 32" fill="none" xmlns="http://www.w3.org/2000/svg">
<path d="M27.6726 0H4.32742C1.93745 0 0 1.81054 0 4.04396V27.956C0 30.1895 1.93745 32 4.32742 32H27.6726C30.0626 32 32 30.1895 32 27.956V4.04396C32 1.81054 30.0626 0 27.6726 0Z" fill="#F24E43"/>
<path d="M17.4097 4.06108C17.4081 4.71718 16.8752 5.2479 16.2191 5.24683C15.563 5.24576 15.0319 4.7133 15.0324 4.0572C15.0329 3.4011 15.565 2.86951 16.2211 2.86951C16.5368 2.86951 16.8396 2.99514 17.0626 3.21869C17.2856 3.44223 17.4105 3.74532 17.4097 4.06108Z" fill="white"/>
<path d="M17.4097 9.04303C17.4097 9.69951 16.8776 10.2317 16.2211 10.2317C15.5646 10.2317 15.0324 9.69951 15.0324 9.04303C15.0324 8.38655 15.5646 7.85437 16.2211 7.85437C16.8776 7.85437 17.4097 8.38655 17.4097 9.04303Z" fill="white"/>
<path d="M17.4097 14.0248C17.4097 14.6813 16.8776 15.2135 16.2211 15.2135C15.5646 15.2135 15.0324 14.6813 15.0324 14.0248C15.0324 13.3684 15.5646 12.8362 16.2211 12.8362C16.8769 12.8378 17.4081 13.369 17.4097 14.0248Z" fill="white"/>
<path d="M13.0922 16.5101C13.0922 16.9923 12.8015 17.4269 12.3559 17.6112C11.9103 17.7955 11.3976 17.693 11.057 17.3516C10.7164 17.0102 10.6152 16.4972 10.8006 16.052C10.9859 15.6069 11.4213 15.3173 11.9035 15.3185C12.5605 15.3201 13.0922 15.8531 13.0922 16.5101Z" fill="white"/>
<path d="M26.0305 9.04303C26.0305 9.69951 25.4983 10.2317 24.8418 10.2317C24.1853 10.2317 23.6531 9.69951 23.6531 9.04303C23.6531 8.38655 24.1853 7.85437 24.8418 7.85437C25.4983 7.85437 26.0305 8.38655 26.0305 9.04303Z" fill="white"/>
<path d="M21.7332 11.5311C21.7332 12.1876 21.201 12.7197 20.5445 12.7197C19.888 12.7197 19.3559 12.1876 19.3559 11.5311C19.3559 10.8746 19.888 10.3424 20.5445 10.3424C20.86 10.3416 21.1628 10.4666 21.3859 10.6897C21.609 10.9128 21.734 11.2156 21.7332 11.5311Z" fill="white"/>
<path d="M21.7332 16.5101C21.7316 17.1662 21.1987 17.6969 20.5426 17.6958C19.8865 17.6947 19.3553 17.1623 19.3559 16.5062C19.3564 15.8501 19.8884 15.3185 20.5445 15.3185C20.8603 15.3185 21.1631 15.4441 21.3861 15.6677C21.6091 15.8912 21.734 16.1943 21.7332 16.5101Z" fill="white"/>
<path d="M13.0891 11.5311C13.0891 12.0121 12.7992 12.4457 12.3546 12.6295C11.9101 12.8133 11.3986 12.7111 11.0589 12.3706C10.7192 12.03 10.6182 11.5182 10.8031 11.0742C10.988 10.6301 11.4223 10.3412 11.9033 10.3424C12.2183 10.3424 12.5204 10.4677 12.7428 10.6907C12.9653 10.9137 13.0899 11.2161 13.0891 11.5311Z" fill="white"/>
<path d="M26.0305 19.0097C26.0288 19.6658 25.496 20.1965 24.8399 20.1954C24.1838 20.1944 23.6526 19.6619 23.6531 19.0058C23.6537 18.3497 24.1857 17.8181 24.8418 17.8181C25.1576 17.8181 25.4603 17.9437 25.6833 18.1673C25.9063 18.3908 26.0312 18.6939 26.0305 19.0097Z" fill="white"/>
<path d="M8.77732 9.04303C8.77732 9.69951 8.24514 10.2317 7.58866 10.2317C6.93218 10.2317 6.39999 9.69951 6.39999 9.04303C6.39999 8.38655 6.93218 7.85437 7.58866 7.85437C7.90391 7.85437 8.20625 7.9796 8.42917 8.20252C8.65208 8.42544 8.77732 8.72778 8.77732 9.04303Z" fill="white"/>
<path d="M8.77732 19.0097C8.77571 19.6658 8.24281 20.1965 7.58671 20.1954C6.93062 20.1944 6.39946 19.6619 6.39999 19.0058C6.40053 18.3497 6.93255 17.8181 7.58865 17.8181C7.90441 17.8181 8.20719 17.9437 8.43019 18.1673C8.6532 18.3908 8.77809 18.6939 8.77732 19.0097Z" fill="white"/>
<path d="M17.4097 19.0097C17.4081 19.6658 16.8752 20.1965 16.2191 20.1954C15.563 20.1944 15.0319 19.6619 15.0324 19.0058C15.0329 18.3497 15.565 17.8181 16.2211 17.8181C16.5368 17.8181 16.8396 17.9437 17.0626 18.1673C17.2856 18.3908 17.4105 18.6939 17.4097 19.0097Z" fill="white"/>
<path d="M17.4097 28.9736C17.4097 29.6301 16.8776 30.1622 16.2211 30.1622C15.5646 30.1622 15.0324 29.6301 15.0324 28.9736C15.0324 28.3171 15.5646 27.7849 16.2211 27.7849C16.8776 27.7849 17.4097 28.3171 17.4097 28.9736Z" fill="white"/>
<path d="M17.4097 23.9887C17.4097 24.6452 16.8775 25.1774 16.221 25.1774C15.5645 25.1774 15.0323 24.6452 15.0323 23.9887C15.0323 23.3322 15.5645 22.8 16.221 22.8C16.8775 22.8 17.4097 23.3322 17.4097 23.9887Z" fill="white"/>
</svg>
