<svg width="16" height="16" viewBox="0 0 16 16" fill="none" xmlns="http://www.w3.org/2000/svg">
<path d="M13.8363 0H2.16371C0.968725 0 0 0.90527 0 2.02198V13.978C0 15.0947 0.968725 16 2.16371 16H13.8363C15.0313 16 16 15.0947 16 13.978V2.02198C16 0.90527 15.0313 0 13.8363 0Z" fill="#F24E43"/>
<path d="M8.70487 2.0306C8.70406 2.35865 8.43762 2.62401 8.10957 2.62348C7.78152 2.62294 7.51594 2.35671 7.51621 2.02866C7.51647 1.70061 7.78248 1.43481 8.11053 1.43481C8.26841 1.43481 8.4198 1.49763 8.53131 1.6094C8.64281 1.72118 8.70525 1.87272 8.70487 2.0306Z" fill="white"/>
<path d="M8.70487 4.52158C8.70487 4.84982 8.43878 5.11591 8.11054 5.11591C7.7823 5.11591 7.5162 4.84982 7.5162 4.52158C7.5162 4.19334 7.7823 3.92725 8.11054 3.92725C8.43878 3.92725 8.70487 4.19334 8.70487 4.52158Z" fill="white"/>
<path d="M8.70487 7.01242C8.70487 7.34066 8.43878 7.60675 8.11054 7.60675C7.7823 7.60675 7.5162 7.34066 7.5162 7.01242C7.5162 6.68418 7.7823 6.41809 8.11054 6.41809C8.43844 6.41889 8.70407 6.68451 8.70487 7.01242Z" fill="white"/>
<path d="M6.54608 8.25497C6.54608 8.49608 6.40077 8.71341 6.17796 8.80554C5.95515 8.89767 5.69878 8.84643 5.5285 8.67574C5.35822 8.50504 5.3076 8.24854 5.40028 8.02596C5.49296 7.80338 5.71065 7.65859 5.95175 7.65918C6.28023 7.65999 6.54608 7.92649 6.54608 8.25497Z" fill="white"/>
<path d="M13.0152 4.52158C13.0152 4.84982 12.7491 5.11591 12.4209 5.11591C12.0927 5.11591 11.8266 4.84982 11.8266 4.52158C11.8266 4.19334 12.0927 3.92725 12.4209 3.92725C12.7491 3.92725 13.0152 4.19334 13.0152 4.52158Z" fill="white"/>
<path d="M10.8666 5.76548C10.8666 6.09372 10.6005 6.35981 10.2722 6.35981C9.94401 6.35981 9.67792 6.09372 9.67792 5.76548C9.67792 5.43724 9.94401 5.17114 10.2722 5.17114C10.43 5.17076 10.5814 5.23325 10.6929 5.34479C10.8045 5.45634 10.867 5.60773 10.8666 5.76548Z" fill="white"/>
<path d="M10.8666 8.25497C10.8658 8.58302 10.5993 8.84838 10.2713 8.84784C9.94323 8.8473 9.67765 8.58108 9.67792 8.25303C9.67819 7.92498 9.9442 7.65918 10.2722 7.65918C10.4301 7.65918 10.5815 7.722 10.693 7.83377C10.8045 7.94554 10.867 8.09709 10.8666 8.25497Z" fill="white"/>
<path d="M6.54455 5.76548C6.54455 6.00599 6.39958 6.2228 6.17732 6.3147C5.95505 6.40661 5.69931 6.35549 5.52944 6.18521C5.35958 6.01493 5.30909 5.75906 5.40154 5.53703C5.49399 5.31499 5.71115 5.17056 5.95167 5.17114C6.10916 5.17114 6.26018 5.23381 6.37141 5.34531C6.48264 5.45681 6.54493 5.60798 6.54455 5.76548Z" fill="white"/>
<path d="M13.0152 9.50484C13.0144 9.83289 12.748 10.0983 12.4199 10.0977C12.0919 10.0972 11.8263 9.83095 11.8266 9.5029C11.8268 9.17485 12.0928 8.90906 12.4209 8.90906C12.5788 8.90906 12.7302 8.97187 12.8417 9.08365C12.9532 9.19542 13.0156 9.34697 13.0152 9.50484Z" fill="white"/>
<path d="M4.38867 4.52158C4.38867 4.84982 4.12258 5.11591 3.79434 5.11591C3.4661 5.11591 3.20001 4.84982 3.20001 4.52158C3.20001 4.19334 3.4661 3.92725 3.79434 3.92725C3.95197 3.92725 4.10314 3.98986 4.2146 4.10132C4.32606 4.21278 4.38867 4.36395 4.38867 4.52158Z" fill="white"/>
<path d="M4.38867 9.50484C4.38787 9.83289 4.12142 10.0983 3.79337 10.0977C3.46532 10.0972 3.19975 9.83095 3.20001 9.5029C3.20028 9.17485 3.46629 8.90906 3.79434 8.90906C3.95222 8.90906 4.10361 8.97187 4.21511 9.08365C4.32661 9.19542 4.38906 9.34697 4.38867 9.50484Z" fill="white"/>
<path d="M8.70487 9.50484C8.70406 9.83289 8.43762 10.0983 8.10957 10.0977C7.78152 10.0972 7.51594 9.83095 7.51621 9.5029C7.51647 9.17485 7.78248 8.90906 8.11053 8.90906C8.26841 8.90906 8.4198 8.97187 8.53131 9.08365C8.64281 9.19542 8.70525 9.34697 8.70487 9.50484Z" fill="white"/>
<path d="M8.70487 14.4868C8.70487 14.815 8.43878 15.0811 8.11054 15.0811C7.7823 15.0811 7.5162 14.815 7.5162 14.4868C7.5162 14.1585 7.7823 13.8925 8.11054 13.8925C8.43878 13.8925 8.70487 14.1585 8.70487 14.4868Z" fill="white"/>
<path d="M8.70484 11.9944C8.70484 12.3226 8.43875 12.5887 8.11051 12.5887C7.78227 12.5887 7.51617 12.3226 7.51617 11.9944C7.51617 11.6661 7.78227 11.4 8.11051 11.4C8.43875 11.4 8.70484 11.6661 8.70484 11.9944Z" fill="white"/>
</svg>
